<?xml version="1.0" encoding="UTF-8" standalone="no"?>
<!DOCTYPE svg PUBLIC "-//W3C//DTD SVG 1.1//EN" "http://www.w3.org/Graphics/SVG/1.1/DTD/svg11.dtd">
<svg xmlns="http://www.w3.org/2000/svg" version="1.1" viewBox="0.00 0.00 1024.00 723.00">
<g stroke-width="2.00" fill="none" stroke-linecap="butt">
<path stroke="#c92b21" vector-effect="non-scaling-stroke" d="
  M 276.84 385.96
  Q 276.26 385.98 276.17 386.22
  C 271.53 398.42 252.42 406.88 241.31 410.32
  C 203.33 422.09 161.92 423.42 122.50 419.55
  Q 117.74 419.08 115.66 418.32
  A 0.43 0.43 0.0 0 0 115.08 418.75
  C 115.12 419.36 115.47 419.93 115.47 420.66
  Q 115.43 442.05 115.45 459.33
  C 115.47 473.47 116.57 490.54 116.57 503.97
  Q 116.57 511.96 115.25 515.76
  Q 111.49 526.58 101.14 527.70
  C 91.31 528.77 84.04 521.46 83.19 511.99
  C 82.55 504.83 82.88 495.33 83.31 487.33
  C 84.66 462.74 84.61 442.98 84.59 415.44
  C 84.59 414.68 84.86 413.59 85.05 412.72
  A 0.63 0.62 -75.8 0 0 84.61 411.98
  Q 71.87 408.39 60.55 401.94
  Q 50.48 396.19 46.18 386.38"
/>
<path stroke="#540f0e" vector-effect="non-scaling-stroke" d="
  M 46.18 396.29
  Q 46.69 396.35 46.62 395.75
  Q 46.58 395.40 46.22 395.46"
/>
</g>
<path fill="#ffbe26" d="
  M 151.41 332.50
  A 0.39 0.38 -88.8 0 1 150.99 332.91
  Q 117.69 329.21 93.21 307.02
  Q 71.88 287.69 65.25 259.97
  Q 62.71 249.34 62.64 237.25
  Q 62.52 215.74 70.10 194.10
  Q 74.14 182.55 78.47 173.96
  C 83.62 163.73 90.56 153.34 97.72 142.77
  Q 108.72 126.53 113.80 118.57
  C 120.87 107.46 127.75 94.51 131.70 81.48
  Q 132.89 77.55 134.34 70.06
  Q 135.23 65.41 135.42 58.40
  Q 135.68 48.74 136.44 45.71
  C 137.69 40.68 141.73 36.04 147.20 37.59
  Q 149.75 38.32 152.04 40.21
  Q 175.98 59.98 196.77 85.69
  Q 221.56 116.32 238.84 151.92
  Q 246.79 168.29 252.28 185.72
  Q 258.41 205.17 259.75 222.76
  Q 260.66 234.70 259.63 246.24
  Q 258.95 253.85 256.80 262.25
  C 249.42 291.05 229.48 315.08 201.72 326.23
  Q 188.19 331.67 173.74 332.92
  A 0.26 0.25 85.9 0 1 173.46 332.67
  L 173.26 319.37
  A 1.46 1.35 -58.8 0 0 173.17 318.93
  C 171.10 313.77 165.31 309.46 159.64 311.13
  Q 154.71 312.58 151.93 317.66
  A 2.70 2.64 -27.0 0 0 151.63 318.55
  Q 150.74 324.11 151.41 332.50
  Z
  M 175.87 225.09
  Q 149.45 248.24 131.43 264.41
  Q 126.14 269.15 126.80 275.63
  A 4.03 3.73 34.0 0 0 127.03 276.61
  Q 129.43 283.10 136.20 285.01
  A 4.18 3.90 52.2 0 0 137.13 285.16
  Q 141.50 285.31 144.98 282.23
  Q 194.04 238.91 199.15 234.40
  Q 203.35 230.70 204.01 228.73
  Q 206.70 220.71 200.18 215.56
  Q 191.40 208.62 185.87 204.14
  Q 154.70 178.85 145.37 171.17
  Q 140.55 167.20 135.15 168.97
  Q 131.06 170.31 128.62 174.00
  C 125.11 179.32 126.77 185.09 131.70 189.06
  Q 160.20 211.99 175.86 224.56
  A 0.35 0.35 0.0 0 1 175.87 225.09
  Z"
/>
<path fill="#000000" d="
  M 554.70 350.95
  Q 553.92 350.83 554.11 349.92
  A 1.21 1.19 24.7 0 0 553.66 348.73
  Q 553.65 348.72 553.62 348.71
  A 1.22 1.21 -71.2 0 1 553.14 347.72
  Q 553.15 346.73 552.61 346.35
  Q 552.00 345.92 552.12 345.01
  Q 552.26 343.95 551.50 343.64
  A 0.74 0.72 -71.6 0 1 551.08 342.78
  Q 551.37 341.68 550.74 340.83
  Q 549.91 339.73 550.07 339.05
  C 550.42 337.61 549.04 337.04 549.14 335.59
  C 549.29 333.45 547.96 331.80 548.10 330.09
  Q 548.29 327.94 547.34 324.40
  A 6.20 5.94 -53.8 0 1 547.15 322.97
  Q 547.09 316.33 547.15 308.76
  Q 547.17 305.75 547.99 303.23
  A 3.29 3.21 -39.0 0 0 548.13 302.05
  Q 547.95 299.11 548.92 297.37
  A 1.68 1.68 0.0 0 0 549.12 296.43
  Q 548.95 294.40 549.83 293.38
  A 1.17 1.15 66.4 0 0 550.13 292.60
  L 550.13 290.89
  A 0.60 0.58 79.0 0 1 550.49 290.34
  Q 551.50 289.91 551.09 288.21
  A 0.73 0.72 -16.0 0 1 551.57 287.35
  Q 552.21 287.14 552.14 285.99
  C 552.06 284.69 553.12 284.65 553.15 283.27
  Q 553.17 282.49 553.83 282.14
  Q 554.34 281.88 554.12 281.04
  A 0.56 0.55 67.6 0 1 554.37 280.43
  Q 554.60 280.30 555.70 278.22
  Q 565.52 259.74 583.54 252.31
  Q 583.65 252.27 585.00 251.95
  Q 586.12 251.69 587.68 250.91
  Q 589.62 249.94 591.76 250.10
  A 1.83 1.83 0.0 0 0 592.69 249.91
  Q 594.10 249.20 596.01 249.16
  Q 605.33 248.99 610.96 249.26
  Q 615.12 249.46 622.79 252.18
  Q 632.30 255.55 638.31 263.19
  Q 640.93 266.52 641.48 267.22
  A 0.37 0.36 26.0 0 0 642.13 267.00
  L 642.13 205.83
  A 0.53 0.52 90.0 0 1 642.65 205.30
  L 674.19 205.30
  A 0.39 0.39 0.0 0 1 674.58 205.69
  L 674.58 380.28
  A 0.60 0.60 0.0 0 1 673.98 380.88
  L 643.30 380.88
  A 0.52 0.52 0.0 0 1 642.78 380.38
  L 642.07 367.42
  A 0.52 0.51 59.5 0 0 641.12 367.17
  Q 638.31 371.71 634.11 374.88
  Q 630.25 377.79 626.05 379.66
  A 2.17 2.15 -57.8 0 1 625.19 379.86
  Q 625.08 379.87 625.02 379.86
  A 0.92 0.92 0.0 0 0 624.19 380.26
  Q 623.64 381.11 622.45 380.85
  A 0.87 0.86 -66.4 0 0 621.56 381.20
  C 620.78 382.35 619.32 381.51 618.19 382.27
  C 616.77 383.23 615.14 382.60 613.71 383.16
  Q 611.95 383.84 609.58 383.86
  C 602.28 383.91 597.29 384.36 593.57 382.99
  A 2.26 2.23 -36.4 0 0 592.66 382.86
  Q 590.80 383.01 589.48 382.25
  C 588.47 381.67 587.70 382.16 586.95 381.59
  Q 586.56 381.30 585.97 381.08
  Q 581.16 379.33 579.73 378.51
  Q 564.16 369.59 555.91 353.46
  A 2.80 1.85 18.0 0 0 555.33 352.73
  Q 554.89 352.34 555.12 351.66
  A 0.54 0.54 0.0 0 0 554.70 350.95
  Z
  M 583.98 337.97
  Q 584.08 338.05 584.23 338.09
  Q 584.42 338.15 584.51 338.38
  Q 589.11 350.22 601.27 354.89
  Q 602.04 355.19 602.46 355.18
  Q 603.26 355.15 603.66 355.74
  A 0.34 0.32 -11.8 0 0 603.89 355.88
  L 610.44 357.12
  A 0.37 0.18 -19.3 0 0 610.53 357.13
  L 616.45 357.13
  A 2.10 2.07 30.2 0 0 617.46 356.87
  Q 618.51 356.30 619.77 356.24
  Q 621.13 356.17 622.55 355.61
  Q 630.78 352.39 636.21 345.23
  Q 637.79 343.15 638.44 341.33
  A 0.42 0.41 -88.4 0 1 638.71 341.07
  Q 639.25 340.91 639.14 340.18
  A 0.88 0.86 71.4 0 1 639.57 339.29
  Q 639.59 339.28 639.62 339.26
  A 1.14 1.12 70.6 0 0 640.14 338.16
  Q 639.98 336.87 640.78 336.43
  A 0.73 0.73 0.0 0 0 641.14 335.68
  Q 640.90 334.30 641.90 332.68
  A 1.72 1.67 -31.7 0 0 642.13 331.76
  Q 642.03 329.60 643.03 325.82
  A 3.04 2.64 -41.0 0 0 643.14 325.04
  L 643.14 308.18
  A 3.17 3.09 -53.7 0 0 643.02 307.32
  Q 641.97 303.52 642.13 300.55
  A 1.42 1.41 -63.6 0 0 641.82 299.61
  Q 640.91 298.45 641.16 296.50
  A 1.01 1.00 22.2 0 0 640.77 295.58
  Q 640.66 295.49 640.28 295.31
  Q 640.02 295.19 640.15 294.25
  Q 640.25 293.56 639.93 293.10
  Q 639.43 292.37 639.35 292.18
  Q 635.71 283.49 627.24 279.09
  A 1.83 1.81 -31.2 0 0 626.41 278.89
  Q 625.56 278.89 625.25 278.33
  A 0.92 0.90 73.5 0 0 624.41 277.86
  Q 622.42 277.97 620.72 276.91
  A 0.78 0.75 60.2 0 0 620.31 276.79
  L 605.79 276.79
  A 1.38 1.36 -62.6 0 0 604.99 277.05
  Q 603.47 278.15 602.10 277.85
  A 0.98 0.96 24.9 0 0 601.13 278.19
  Q 600.71 278.71 600.15 278.78
  Q 599.54 278.86 598.82 279.18
  Q 588.81 283.53 584.34 293.83
  Q 583.37 296.08 583.12 296.52
  A 2.12 2.11 57.7 0 0 582.87 297.63
  Q 582.93 298.96 582.15 300.00
  A 1.47 1.46 62.1 0 0 581.87 300.92
  Q 581.97 303.63 581.02 306.90
  A 3.53 3.36 54.9 0 0 580.87 307.91
  L 580.87 322.28
  A 4.46 4.37 -53.8 0 0 581.05 323.53
  Q 581.96 326.77 581.88 329.66
  A 1.87 1.83 -58.9 0 0 582.11 330.63
  Q 582.93 332.16 582.88 333.85
  A 1.48 1.47 28.6 0 0 583.15 334.76
  Q 584.08 336.04 583.84 337.63
  A 0.37 0.36 22.9 0 0 583.98 337.97
  Z"
/>
<path fill="#000000" d="
  M 406.49 278.88
  L 390.55 278.88
  A 3.82 3.77 -56.3 0 0 389.05 279.19
  Q 387.01 280.07 385.28 279.87
  A 0.84 0.83 19.5 0 0 384.48 280.25
  Q 383.97 281.07 382.48 280.83
  A 0.81 0.81 0.0 0 0 381.67 281.21
  Q 381.55 281.42 380.21 281.97
  Q 370.19 286.09 366.84 296.10
  Q 365.96 298.75 365.80 300.25
  Q 365.60 302.22 365.02 303.95
  A 3.17 3.09 54.9 0 0 364.86 304.94
  L 364.86 380.37
  A 0.51 0.51 0.0 0 1 364.35 380.88
  L 332.62 380.88
  A 0.50 0.49 90.0 0 1 332.13 380.38
  L 332.13 252.14
  A 0.53 0.53 0.0 0 1 332.66 251.61
  L 362.61 251.61
  A 0.65 0.64 -90.0 0 1 363.25 252.26
  L 363.25 269.83
  A 1.01 1.01 0.0 0 0 364.80 270.69
  Q 365.66 270.15 366.93 268.48
  A 1.05 1.05 0.0 0 0 367.12 267.57
  Q 366.89 266.62 367.53 266.28
  A 0.53 0.50 88.7 0 0 367.74 266.05
  Q 371.28 257.96 378.03 254.29
  Q 379.22 253.64 379.28 253.43
  A 0.46 0.46 0.0 0 1 379.81 253.11
  Q 380.64 253.27 381.03 252.57
  A 0.80 0.80 0.0 0 1 381.73 252.16
  Q 382.98 252.18 383.35 251.65
  Q 383.82 250.97 384.77 251.11
  C 386.41 251.35 386.49 250.01 388.11 250.16
  Q 389.68 250.30 390.87 249.42
  A 0.93 0.88 24.7 0 1 391.37 249.25
  L 400.59 249.08
  A 1.47 1.47 0.0 0 1 401.24 249.21
  Q 403.71 250.33 406.22 250.07
  A 0.60 0.58 -3.1 0 1 406.88 250.65
  L 406.88 278.49
  A 0.39 0.39 0.0 0 1 406.49 278.88
  Z"
/>
<path fill="#000000" d="
  M 528.20 284.10
  Q 528.99 284.35 528.87 285.54
  A 0.98 0.97 22.3 0 0 529.23 286.39
  Q 530.00 287.00 529.84 288.39
  A 0.90 0.89 -73.3 0 0 530.31 289.27
  Q 530.45 289.34 530.66 289.51
  Q 530.84 289.66 530.83 290.04
  C 530.75 292.01 531.96 292.40 531.86 294.02
  Q 531.80 295.00 532.64 296.32
  Q 532.91 296.75 532.86 298.69
  A 2.13 2.12 31.9 0 0 533.10 299.71
  Q 534.11 301.61 533.86 304.25
  A 2.94 2.81 41.1 0 0 533.96 305.36
  L 534.79 308.22
  A 1.08 0.94 40.9 0 1 534.83 308.50
  L 534.90 324.52
  A 0.62 0.62 0.0 0 1 534.28 325.14
  L 445.50 325.14
  A 0.66 0.65 0.0 0 0 444.84 325.79
  L 444.84 332.68
  A 3.74 3.67 34.3 0 0 445.12 334.09
  Q 445.58 335.23 445.71 336.47
  A 18.46 18.19 29.9 0 0 447.34 342.33
  Q 447.87 343.46 449.25 346.10
  Q 450.12 347.77 451.75 349.48
  C 455.70 353.62 458.68 356.50 464.32 357.93
  Q 478.03 361.42 490.36 355.82
  Q 494.60 353.89 498.08 348.37
  A 0.94 0.90 -30.8 0 0 498.21 347.90
  Q 498.19 347.17 498.74 346.90
  A 0.75 0.74 70.5 0 0 499.14 346.05
  Q 498.92 345.15 499.74 344.67
  A 0.83 0.82 -20.2 0 0 500.14 343.83
  Q 499.92 342.50 501.10 341.29
  A 0.97 0.94 24.5 0 1 501.89 341.01
  Q 504.98 341.36 505.93 341.72
  C 507.42 342.30 509.88 341.84 511.09 342.86
  A 1.34 1.33 -29.0 0 0 512.15 343.16
  Q 514.13 342.88 515.35 343.84
  A 1.34 1.32 60.7 0 0 516.32 344.12
  Q 518.18 343.91 519.37 344.91
  A 1.17 1.14 58.8 0 0 520.34 345.16
  Q 521.99 344.86 522.63 345.80
  A 0.72 0.70 -16.8 0 0 523.22 346.11
  L 524.11 346.11
  A 2.56 2.32 51.9 0 1 524.92 346.25
  L 531.50 348.52
  A 0.60 0.60 0.0 0 1 531.86 349.33
  Q 522.86 370.72 501.29 379.68
  Q 500.88 379.85 500.27 379.91
  Q 499.74 379.97 499.41 380.48
  Q 499.13 380.90 498.51 380.87
  Q 497.70 380.81 497.08 381.14
  A 1.50 0.15 -29.3 0 1 496.17 381.54
  Q 486.49 383.84 483.50 383.87
  Q 482.71 383.88 467.18 383.86
  A 6.08 5.68 -36.4 0 1 465.81 383.70
  C 464.22 383.33 463.20 382.87 461.69 382.88
  Q 459.96 382.88 458.68 382.13
  A 1.94 1.89 -28.9 0 0 457.77 381.88
  L 456.20 381.85
  A 0.45 0.33 -27.3 0 1 456.07 381.83
  Q 440.48 376.89 429.98 365.28
  Q 421.00 355.36 416.06 342.45
  Q 414.88 339.39 414.58 338.43
  Q 410.51 325.58 411.16 311.18
  C 411.29 308.15 412.40 304.89 412.15 302.59
  C 411.99 301.23 413.28 300.36 413.13 298.97
  Q 412.95 297.30 413.83 296.39
  A 1.04 1.02 67.9 0 0 414.13 295.66
  L 414.13 293.95
  A 0.51 0.51 0.0 0 1 414.47 293.47
  Q 415.26 293.18 415.13 291.79
  Q 415.04 290.80 415.66 290.33
  Q 416.25 289.87 416.16 288.74
  A 0.72 0.72 0.0 0 1 416.58 288.03
  Q 417.16 287.75 417.12 287.21
  Q 417.08 286.71 417.27 286.29
  Q 423.82 272.02 435.27 262.50
  Q 446.79 252.92 462.27 249.93
  Q 467.16 248.98 472.34 249.08
  Q 477.16 249.17 482.60 249.16
  A 5.26 5.25 55.9 0 1 484.66 249.56
  Q 486.39 250.27 487.90 250.14
  A 2.98 2.90 -34.4 0 1 489.40 250.40
  C 490.35 250.83 491.24 251.16 492.44 251.17
  Q 493.41 251.18 493.72 251.77
  A 0.73 0.73 0.0 0 0 494.50 252.15
  Q 495.84 251.89 496.59 252.76
  A 1.09 1.07 -22.5 0 0 497.51 253.13
  Q 498.37 253.06 498.69 253.57
  A 1.35 1.33 72.0 0 0 499.81 254.15
  L 500.19 254.15
  A 0.69 0.68 80.5 0 1 500.84 254.62
  Q 501.04 255.20 501.58 255.13
  Q 501.92 255.08 502.41 255.35
  Q 514.97 262.07 522.77 274.02
  Q 523.72 275.47 525.65 278.53
  A 1.32 1.30 30.6 0 1 525.85 279.29
  Q 525.81 279.90 526.24 280.03
  A 0.93 0.92 -81.8 0 1 526.88 280.90
  Q 526.88 280.98 526.86 281.13
  A 1.07 1.07 0.0 0 0 527.47 282.20
  Q 528.10 282.48 527.83 283.42
  A 0.55 0.55 0.0 0 0 528.20 284.10
  Z
  M 460.85 276.12
  Q 456.52 279.03 456.36 279.13
  Q 453.98 280.72 450.06 287.18
  A 0.58 0.47 72.5 0 0 449.99 287.36
  Q 449.66 288.73 449.27 288.90
  A 0.68 0.67 -16.2 0 0 448.87 289.61
  Q 449.04 290.79 448.17 291.56
  A 0.98 0.95 -26.3 0 0 447.86 292.44
  Q 448.08 293.71 447.15 295.20
  A 0.95 0.85 -29.3 0 0 447.02 295.58
  L 446.33 301.52
  A 1.25 1.25 0.0 0 0 447.57 302.91
  L 500.26 302.91
  A 1.67 1.67 0.0 0 0 501.92 301.03
  L 500.94 293.47
  A 0.61 0.59 23.5 0 0 500.82 293.18
  Q 499.99 292.13 500.13 290.59
  A 0.80 0.79 22.6 0 0 499.84 289.90
  Q 499.80 289.86 499.75 289.82
  A 1.88 1.87 11.7 0 1 499.20 288.99
  Q 498.34 286.39 496.71 284.28
  Q 492.64 279.02 487.03 276.16
  Q 486.37 275.82 485.99 275.82
  Q 485.36 275.81 485.18 275.32
  A 0.73 0.71 -14.2 0 0 484.39 274.86
  Q 483.00 275.09 481.88 274.11
  A 1.00 0.99 -29.1 0 0 481.01 273.87
  Q 480.32 274.01 477.17 273.53
  C 473.88 273.02 471.06 273.51 467.06 274.00
  A 2.15 1.90 23.8 0 0 466.34 274.23
  Q 464.95 274.98 463.51 274.87
  A 0.71 0.70 9.5 0 0 462.78 275.38
  Q 462.63 275.94 461.89 275.86
  A 1.60 1.54 -58.0 0 0 460.85 276.12
  Z"
/>
<rect fill="#000000" x="693.39" y="301.52" width="65.48" height="30.36" rx="0.27"/>
<path fill="#e93826" d="
  M 276.84 385.96
  Q 276.26 385.98 276.17 386.22
  C 271.53 398.42 252.42 406.88 241.31 410.32
  C 203.33 422.09 161.92 423.42 122.50 419.55
  Q 117.74 419.08 115.66 418.32
  A 0.43 0.43 0.0 0 0 115.08 418.75
  C 115.12 419.36 115.47 419.93 115.47 420.66
  Q 115.43 442.05 115.45 459.33
  C 115.47 473.47 116.57 490.54 116.57 503.97
  Q 116.57 511.96 115.25 515.76
  Q 111.49 526.58 101.14 527.70
  C 91.31 528.77 84.04 521.46 83.19 511.99
  C 82.55 504.83 82.88 495.33 83.31 487.33
  C 84.66 462.74 84.61 442.98 84.59 415.44
  C 84.59 414.68 84.86 413.59 85.05 412.72
  A 0.63 0.62 -75.8 0 0 84.61 411.98
  Q 71.87 408.39 60.55 401.94
  Q 50.48 396.19 46.18 386.38
  L 46.13 379.76
  A 4.34 4.27 -39.8 0 1 46.23 378.75
  C 48.45 368.34 59.87 361.49 69.58 357.34
  Q 85.98 350.34 106.00 347.13
  Q 124.14 344.21 142.26 343.28
  Q 147.09 343.03 150.73 343.18
  A 0.56 0.56 0.0 0 1 151.26 343.75
  Q 151.15 348.81 151.19 379.24
  C 151.20 384.92 156.20 389.21 161.36 390.08
  Q 164.12 390.54 167.55 388.53
  Q 172.22 385.79 173.31 381.75
  Q 173.65 380.51 173.67 372.60
  Q 173.73 351.31 173.63 343.74
  A 0.54 0.54 0.0 0 1 174.16 343.19
  Q 178.03 343.09 184.01 343.54
  Q 198.17 344.58 203.74 345.25
  Q 216.48 346.77 227.33 349.11
  Q 233.06 350.35 241.23 352.74
  Q 254.03 356.49 265.31 363.66
  C 267.41 365.00 269.49 367.13 271.18 368.84
  Q 278.00 375.71 276.84 385.96
  Z"
/>
<path fill="#a81d1c" d="
  M 276.84 385.96
  L 276.86 659.15
  A 5.37 5.35 52.1 0 1 276.70 660.45
  C 274.31 669.96 266.26 676.18 258.00 680.77
  Q 249.44 685.53 238.79 689.07
  C 227.78 692.73 217.11 694.70 205.26 696.64
  Q 203.99 696.85 201.75 696.91
  C 200.45 696.95 198.64 697.62 196.99 697.70
  C 191.69 697.94 187.08 698.91 182.30 698.82
  Q 182.01 698.81 169.00 699.47
  Q 160.69 699.88 145.79 699.03
  Q 136.29 698.48 132.97 698.14
  Q 121.70 696.99 117.58 696.35
  Q 107.75 694.82 102.31 693.72
  Q 82.42 689.66 66.63 681.36
  Q 56.93 676.26 50.66 668.87
  Q 47.69 665.37 46.33 660.51
  A 3.80 3.53 -55.0 0 1 46.19 659.50
  L 46.18 396.29
  Q 46.69 396.35 46.62 395.75
  Q 46.58 395.40 46.22 395.46
  L 46.18 386.38
  Q 50.48 396.19 60.55 401.94
  Q 71.87 408.39 84.61 411.98
  A 0.63 0.62 -75.8 0 1 85.05 412.72
  C 84.86 413.59 84.59 414.68 84.59 415.44
  C 84.61 442.98 84.66 462.74 83.31 487.33
  C 82.88 495.33 82.55 504.83 83.19 511.99
  C 84.04 521.46 91.31 528.77 101.14 527.70
  Q 111.49 526.58 115.25 515.76
  Q 116.57 511.96 116.57 503.97
  C 116.57 490.54 115.47 473.47 115.45 459.33
  Q 115.43 442.05 115.47 420.66
  C 115.47 419.93 115.12 419.36 115.08 418.75
  A 0.43 0.43 0.0 0 1 115.66 418.32
  Q 117.74 419.08 122.50 419.55
  C 161.92 423.42 203.33 422.09 241.31 410.32
  C 252.42 406.88 271.53 398.42 276.17 386.22
  Q 276.26 385.98 276.84 385.96
  Z"
/>
<path fill="#000000" d="
  M 860.38 564.88
  L 830.27 564.88
  A 0.33 0.33 0.0 0 1 829.94 564.55
  L 829.94 395.75
  A 0.41 0.41 0.0 0 1 830.35 395.34
  L 860.43 395.34
  A 0.44 0.44 0.0 0 1 860.87 395.78
  Q 860.87 456.05 860.88 456.83
  Q 861.00 469.83 860.42 482.68
  Q 859.90 494.28 859.80 508.53
  Q 859.73 519.02 860.57 536.47
  Q 861.17 548.70 860.81 564.45
  A 0.44 0.43 -89.3 0 1 860.38 564.88
  Z"
/>
<path fill="#000000" d="
  M 808.40 564.88
  L 779.57 564.88
  A 0.45 0.44 90.0 0 1 779.13 564.43
  L 779.13 553.47
  A 1.00 1.00 0.0 0 0 777.33 552.87
  Q 772.65 559.21 766.45 562.63
  A 2.53 0.62 -5.3 0 1 765.52 562.95
  Q 765.10 563.04 764.80 563.46
  A 0.97 0.96 18.3 0 1 763.97 563.87
  Q 763.67 563.86 763.66 563.86
  A 1.33 1.30 -71.3 0 0 762.55 564.42
  Q 762.16 564.98 761.25 564.86
  A 0.96 0.96 0.0 0 0 760.35 565.23
  Q 759.72 566.04 758.32 565.87
  A 1.12 1.09 26.5 0 0 757.41 566.16
  Q 756.52 567.00 754.82 566.87
  A 2.43 2.42 36.0 0 0 753.74 567.04
  Q 751.81 567.81 751.50 567.81
  Q 737.98 568.03 733.76 567.79
  Q 733.26 567.76 732.18 567.13
  A 1.96 1.91 -31.0 0 0 731.07 566.87
  Q 729.72 566.98 728.76 566.32
  C 727.77 565.63 726.95 566.15 726.19 565.57
  Q 725.74 565.22 725.26 565.05
  Q 720.86 563.53 716.74 560.74
  Q 705.27 552.99 698.94 540.25
  A 0.59 0.59 0.0 0 0 698.66 539.97
  Q 698.07 539.68 698.12 538.97
  A 1.10 1.10 0.0 0 0 697.70 538.03
  Q 697.67 538.01 697.61 537.97
  A 1.21 1.20 -68.2 0 1 697.11 536.79
  Q 697.22 536.12 696.70 535.88
  A 1.02 1.02 0.0 0 1 696.11 534.94
  Q 696.11 534.81 696.11 534.64
  A 1.37 1.35 18.0 0 0 695.51 533.48
  Q 695.04 533.16 695.12 532.51
  C 695.27 531.14 693.92 530.75 694.14 529.03
  A 1.09 1.08 -65.3 0 0 693.81 528.12
  Q 692.89 527.26 693.15 525.70
  A 1.15 1.15 0.0 0 0 692.81 524.68
  Q 691.88 523.78 692.15 521.72
  A 1.41 1.40 -59.4 0 0 691.89 520.69
  C 690.68 519.02 691.40 516.44 690.80 514.69
  C 690.44 513.63 690.15 511.59 690.15 510.43
  Q 690.12 503.25 690.12 496.25
  Q 690.13 493.51 690.92 490.99
  A 3.95 3.95 0.0 0 0 691.11 489.78
  C 691.12 488.18 691.06 486.79 691.77 485.42
  Q 692.29 484.42 692.14 483.37
  C 691.92 481.82 693.29 481.44 693.12 479.74
  Q 693.03 478.86 693.61 478.36
  Q 694.43 477.65 694.09 476.23
  A 0.73 0.73 0.0 0 1 694.52 475.39
  Q 695.19 475.12 695.13 474.44
  Q 695.08 473.89 695.34 473.24
  Q 697.02 468.99 699.73 464.45
  Q 709.11 448.70 724.48 442.19
  Q 728.70 440.40 731.90 440.08
  Q 733.06 439.97 735.12 439.39
  A 7.33 7.22 -52.6 0 1 736.97 439.13
  Q 743.40 439.10 746.75 439.15
  Q 750.24 439.20 751.26 439.70
  C 752.92 440.51 754.74 439.64 756.18 440.85
  A 1.35 1.35 0.0 0 0 757.19 441.16
  Q 758.48 441.00 760.03 441.85
  Q 761.41 442.60 762.31 442.89
  Q 763.91 443.39 766.24 444.78
  Q 772.88 448.71 776.93 454.76
  A 0.66 0.65 -62.0 0 0 778.13 454.39
  L 778.13 395.84
  A 0.49 0.49 0.0 0 1 778.62 395.35
  L 808.40 395.35
  A 0.47 0.47 0.0 0 1 808.87 395.82
  L 808.87 564.40
  A 0.48 0.47 90.0 0 1 808.40 564.88
  Z
  M 764.39 467.87
  Q 763.24 467.99 762.80 467.28
  A 0.93 0.92 -19.5 0 0 761.91 466.86
  Q 760.66 467.02 759.52 466.30
  A 2.09 2.03 64.3 0 0 758.70 466.00
  Q 755.52 465.59 751.20 465.27
  C 748.81 465.10 745.87 466.17 743.48 465.85
  A 1.06 1.06 0.0 0 0 742.59 466.15
  Q 741.70 467.02 740.24 466.84
  A 1.36 1.35 -64.6 0 0 739.10 467.25
  Q 739.05 467.30 738.99 467.38
  A 1.42 1.41 -66.3 0 1 737.72 467.88
  Q 736.92 467.78 736.70 468.51
  A 0.42 0.41 -82.4 0 1 736.34 468.79
  Q 736.06 468.81 736.02 468.81
  Q 735.81 468.79 735.54 468.95
  Q 729.59 472.43 726.06 478.44
  Q 725.86 478.77 725.74 479.24
  Q 725.62 479.70 725.36 479.83
  A 0.91 0.90 74.8 0 0 724.86 480.72
  Q 724.93 481.59 724.26 481.89
  A 0.68 0.67 -17.5 0 0 723.87 482.62
  Q 724.07 483.78 723.17 484.57
  A 0.97 0.97 0.0 0 0 722.86 485.44
  Q 723.08 486.85 722.13 488.28
  A 1.58 1.58 0.0 0 0 721.87 489.18
  Q 721.98 492.40 721.00 496.55
  A 4.08 3.92 -39.1 0 0 720.88 497.52
  C 720.86 502.96 720.51 506.97 721.31 511.41
  Q 721.98 515.14 721.89 516.28
  C 721.78 517.68 723.05 519.18 722.87 520.85
  A 1.28 1.26 -61.6 0 0 723.14 521.79
  Q 723.95 522.83 723.88 524.02
  A 0.91 0.91 0.0 0 0 724.27 524.82
  Q 724.42 524.92 724.85 525.52
  Q 725.40 526.28 725.69 527.48
  Q 725.85 528.11 725.84 528.16
  A 0.85 0.84 -69.0 0 0 726.19 528.95
  Q 727.17 529.64 727.90 531.32
  A 2.00 1.85 16.2 0 0 728.20 531.82
  Q 736.93 541.90 749.77 542.50
  Q 758.54 542.91 765.36 538.51
  Q 772.29 534.04 775.93 526.23
  Q 776.18 525.70 776.19 525.18
  Q 776.19 524.65 776.74 524.35
  A 0.76 0.75 71.8 0 0 777.13 523.57
  Q 776.86 521.74 777.69 521.36
  A 0.77 0.76 74.6 0 0 778.13 520.58
  Q 777.93 518.72 778.86 515.93
  A 3.60 3.34 58.2 0 0 779.03 515.06
  Q 779.77 503.96 779.01 493.09
  A 3.35 3.28 34.1 0 0 778.84 492.25
  Q 778.00 489.76 778.13 487.47
  A 1.23 1.22 -64.3 0 0 777.82 486.58
  Q 777.03 485.67 777.15 483.99
  A 1.16 1.16 0.0 0 0 776.75 483.03
  Q 775.97 482.36 776.14 481.20
  A 0.82 0.80 -72.6 0 0 775.72 480.38
  Q 775.12 480.05 775.15 479.34
  A 0.87 0.84 33.8 0 0 775.06 478.92
  Q 772.07 473.07 766.44 469.03
  A 1.20 1.18 -29.7 0 0 765.61 468.81
  Q 765.18 468.85 765.14 468.48
  A 0.69 0.68 -5.5 0 0 764.39 467.87
  Z"
/>
<path fill="#000000" d="
  M 46.18 396.29
  Q 46.31 396.07 46.22 395.46
  Q 46.58 395.40 46.62 395.75
  Q 46.69 396.35 46.18 396.29
  Z"
/>
<path fill="#000000" d="
  M 447.64 473.25
  L 450.13 464.67
  A 0.90 0.89 -7.2 0 1 450.54 464.15
  Q 451.16 463.78 451.13 463.13
  Q 451.09 462.16 451.52 462.03
  Q 452.01 461.88 452.06 461.20
  A 0.74 0.69 63.7 0 1 452.16 460.87
  Q 459.94 447.04 474.97 441.36
  C 475.93 441.00 476.70 441.31 477.49 440.52
  Q 477.91 440.10 478.58 440.16
  Q 480.50 440.32 481.91 439.60
  A 2.89 2.83 -60.4 0 1 482.92 439.31
  Q 493.67 438.37 499.25 438.71
  Q 505.67 439.11 508.49 439.23
  Q 510.41 439.31 511.77 439.95
  A 2.06 2.05 -33.9 0 0 512.76 440.14
  Q 514.84 440.00 515.83 440.94
  A 0.61 0.61 0.0 0 0 516.58 441.01
  Q 516.83 440.86 519.07 441.62
  Q 529.94 445.32 537.31 451.99
  Q 539.44 453.93 542.68 458.70
  Q 542.83 458.91 542.86 459.47
  Q 542.88 459.90 543.32 460.03
  A 0.84 0.82 -78.5 0 1 543.89 460.91
  Q 543.89 460.94 543.90 461.06
  A 1.27 1.27 0.0 0 0 544.46 462.01
  Q 545.07 462.41 544.86 463.52
  A 0.53 0.53 0.0 0 0 545.23 464.14
  Q 546.06 464.39 545.86 465.77
  A 1.00 1.00 0.0 0 0 546.18 466.66
  Q 547.06 467.42 546.86 469.04
  A 1.27 1.24 30.3 0 0 547.12 469.98
  Q 547.88 470.96 547.87 472.55
  C 547.86 475.06 548.86 476.71 548.87 479.22
  Q 548.88 488.02 548.88 564.37
  A 0.52 0.51 0.0 0 1 548.36 564.88
  L 522.63 564.88
  A 0.63 0.62 84.3 0 1 522.02 564.37
  Q 521.32 560.83 521.11 556.03
  Q 521.04 554.53 520.30 553.26
  A 0.60 0.60 0.0 0 0 519.38 553.12
  Q 516.92 555.35 513.92 558.41
  Q 513.10 559.25 507.93 562.33
  A 0.65 0.61 -83.5 0 0 507.74 562.49
  Q 507.31 563.04 506.64 562.87
  A 0.62 0.62 0.0 0 0 505.90 563.28
  Q 505.63 564.12 504.49 563.85
  A 0.68 0.68 0.0 0 0 503.73 564.21
  Q 503.54 564.59 503.01 564.86
  Q 502.54 565.10 501.00 565.54
  Q 498.45 566.26 494.75 567.25
  A 18.44 18.27 37.1 0 1 490.25 567.85
  Q 484.03 567.91 474.00 567.86
  Q 471.77 567.85 470.61 567.15
  A 1.70 1.65 -28.1 0 0 469.78 566.91
  Q 468.70 566.87 467.09 566.66
  Q 464.66 566.34 464.22 565.84
  Q 463.34 564.86 462.19 564.82
  A 1.65 1.62 63.2 0 1 461.33 564.53
  Q 460.89 564.21 459.15 563.31
  Q 448.14 557.61 443.18 545.40
  Q 442.26 543.13 442.10 542.04
  Q 441.93 540.94 441.35 539.25
  A 4.20 4.03 36.9 0 1 441.12 537.84
  Q 441.13 537.09 441.14 527.76
  Q 441.14 525.73 441.90 524.40
  A 1.76 1.70 58.1 0 0 442.12 523.38
  Q 441.97 521.53 442.86 520.63
  A 1.04 1.03 -27.9 0 0 443.14 519.73
  Q 442.93 518.47 443.71 518.19
  A 0.66 0.66 0.0 0 0 444.13 517.42
  Q 443.89 516.36 444.76 515.83
  A 0.70 0.70 0.0 0 0 445.10 515.12
  Q 444.97 514.29 445.95 513.77
  Q 446.13 513.67 446.12 513.30
  Q 446.12 513.00 446.23 512.81
  Q 452.10 503.30 462.56 497.88
  Q 462.87 497.72 463.21 497.35
  Q 463.56 496.98 464.02 497.12
  A 0.77 0.76 25.7 0 0 464.84 496.84
  Q 465.46 495.99 465.86 496.21
  Q 466.06 496.32 467.43 495.51
  Q 467.67 495.37 472.05 494.04
  Q 475.71 492.94 476.94 493.03
  A 1.43 1.37 31.5 0 0 477.72 492.86
  Q 479.41 491.94 482.00 492.14
  A 2.03 2.00 -54.5 0 0 482.98 491.97
  C 485.74 490.76 489.79 491.30 492.70 490.82
  Q 497.71 489.99 503.68 490.14
  A 2.70 2.69 35.6 0 0 504.65 489.98
  Q 505.68 489.60 507.83 489.16
  Q 509.89 488.74 511.81 487.62
  Q 513.99 486.36 516.56 482.99
  A 2.73 2.54 73.9 0 0 516.99 482.14
  L 518.04 478.54
  A 2.64 2.60 46.2 0 0 518.06 477.19
  Q 516.95 472.84 514.05 469.71
  Q 510.78 466.19 506.27 464.17
  Q 502.96 462.68 498.00 462.69
  Q 491.01 462.71 489.58 463.07
  Q 488.31 463.40 486.56 464.01
  Q 482.43 465.43 479.32 470.30
  Q 478.51 471.57 476.91 476.32
  A 0.66 0.64 -77.1 0 1 476.21 476.77
  Q 471.37 476.19 470.80 476.03
  A 4.29 4.23 51.4 0 0 469.54 475.88
  Q 464.72 476.01 460.16 474.98
  A 5.14 4.63 48.0 0 0 459.00 474.86
  Q 454.38 474.96 447.99 473.83
  A 0.45 0.45 0.0 0 1 447.64 473.25
  Z
  M 470.80 524.25
  Q 470.79 524.82 470.75 528.29
  Q 470.73 530.22 471.65 532.09
  Q 473.44 535.75 476.56 537.95
  Q 479.68 540.15 482.06 540.97
  Q 484.68 541.87 484.79 541.88
  Q 490.19 542.76 499.29 542.05
  A 2.80 2.77 -59.3 0 0 500.21 541.81
  Q 501.81 541.08 503.14 541.14
  A 0.92 0.90 -68.1 0 0 503.87 540.82
  Q 504.00 540.67 505.72 540.06
  Q 512.88 537.47 516.52 531.13
  Q 517.12 530.10 517.72 528.52
  Q 517.94 527.92 518.96 525.47
  A 2.19 2.16 -33.3 0 0 519.13 524.68
  Q 519.19 523.33 519.82 521.85
  A 3.90 3.83 59.2 0 0 520.11 520.66
  Q 520.46 515.68 519.34 510.89
  A 0.94 0.94 0.0 0 0 518.18 510.19
  Q 516.96 510.53 515.50 510.34
  Q 511.63 509.83 508.17 509.84
  C 502.04 509.84 495.34 511.08 490.18 510.92
  A 2.94 2.91 34.4 0 0 488.97 511.14
  Q 486.71 512.07 484.46 511.86
  A 1.00 0.98 21.0 0 0 483.58 512.24
  Q 482.94 513.08 481.64 512.85
  A 0.76 0.74 -72.9 0 0 480.83 513.29
  Q 480.57 513.90 479.39 513.87
  Q 479.01 513.87 478.84 514.29
  Q 478.68 514.69 478.28 514.72
  Q 477.75 514.75 477.28 515.08
  Q 473.91 517.39 472.35 519.88
  Q 470.84 522.30 470.80 524.25
  Z"
/>
<path fill="#000000" d="
  M 431.64 524.68
  L 430.94 525.89
  A 0.70 0.66 -35.5 0 0 430.86 526.31
  Q 431.07 527.70 430.20 528.37
  A 0.90 0.89 66.8 0 0 429.87 529.21
  Q 429.94 529.68 429.74 530.76
  Q 429.27 533.19 428.76 533.50
  Q 428.08 533.90 427.95 534.52
  Q 427.75 535.40 427.74 535.43
  Q 423.06 545.82 415.89 553.13
  Q 410.76 558.35 403.32 562.14
  Q 403.04 562.28 402.58 562.69
  Q 402.21 563.02 401.65 562.88
  A 0.63 0.62 15.9 0 0 400.90 563.29
  Q 400.63 564.05 399.49 563.86
  A 0.83 0.83 0.0 0 0 398.66 564.22
  Q 398.04 565.16 396.68 564.84
  A 0.82 0.81 -68.6 0 0 395.80 565.23
  Q 395.25 566.17 393.67 565.84
  A 1.03 1.02 -62.9 0 0 392.72 566.15
  Q 391.90 567.02 389.91 566.88
  A 2.07 2.06 34.1 0 0 388.81 567.09
  Q 387.50 567.73 386.49 567.77
  Q 381.61 567.95 369.73 567.86
  C 367.58 567.84 365.82 566.61 363.91 566.87
  A 1.43 1.39 -32.7 0 1 363.02 566.69
  L 362.04 566.13
  A 2.17 2.15 -33.1 0 0 360.68 565.85
  Q 359.41 566.01 358.70 565.21
  A 0.97 0.95 69.4 0 0 357.97 564.87
  L 356.86 564.87
  A 1.10 1.08 69.8 0 1 356.02 564.47
  Q 355.55 563.92 355.07 563.91
  Q 354.63 563.91 354.13 563.70
  Q 342.35 558.65 333.63 548.87
  Q 328.20 542.80 324.64 535.89
  Q 323.55 533.78 323.28 533.59
  A 0.55 0.54 26.3 0 1 323.07 532.99
  Q 323.35 532.07 322.58 531.81
  A 0.64 0.63 8.2 0 1 322.15 531.24
  L 322.09 530.16
  A 0.67 0.66 -80.4 0 0 321.70 529.60
  Q 321.00 529.30 321.13 528.26
  C 321.30 526.97 319.94 526.75 320.14 525.07
  A 1.26 1.23 -63.5 0 0 319.82 524.07
  Q 318.95 523.10 319.13 521.34
  A 1.50 1.48 -58.6 0 0 318.91 520.40
  Q 317.90 518.79 318.15 516.35
  A 2.34 2.26 37.5 0 0 317.99 515.28
  Q 317.24 513.46 317.22 512.50
  Q 317.07 504.33 317.13 496.18
  Q 317.15 493.47 317.94 491.10
  A 3.35 3.30 -37.8 0 0 318.11 489.83
  Q 317.98 487.53 318.89 486.35
  A 1.35 1.32 -31.4 0 0 319.15 485.33
  Q 318.87 483.55 319.84 482.61
  A 1.06 1.05 -27.8 0 0 320.14 481.65
  Q 319.90 480.40 320.76 479.69
  A 0.96 0.96 0.0 0 0 321.12 478.88
  L 321.06 477.77
  A 0.60 0.59 -6.5 0 1 321.56 477.15
  Q 322.31 477.02 322.12 476.25
  Q 321.97 475.66 322.27 475.06
  Q 324.41 470.67 327.33 465.76
  A 8.07 8.02 -7.0 0 1 328.51 464.26
  C 328.96 463.81 329.42 462.75 329.82 462.23
  Q 339.35 449.76 353.25 443.38
  Q 353.86 443.10 354.64 443.05
  Q 355.12 443.03 355.40 442.52
  Q 355.65 442.07 356.22 442.16
  Q 357.27 442.31 357.98 441.78
  Q 358.98 441.01 359.62 441.09
  C 361.17 441.27 361.95 440.07 363.53 440.16
  C 365.50 440.27 367.40 439.15 369.53 439.14
  Q 378.86 439.10 384.72 439.15
  C 386.79 439.17 388.86 440.25 390.76 440.18
  C 392.09 440.13 392.82 441.24 394.51 441.16
  A 1.57 1.55 -21.5 0 1 395.75 441.69
  Q 395.76 441.70 395.83 441.79
  A 0.98 0.96 -21.9 0 0 396.70 442.15
  Q 398.14 441.96 398.64 442.72
  A 0.89 0.88 -18.9 0 0 399.47 443.12
  Q 400.61 443.02 400.81 443.70
  A 0.63 0.61 -13.3 0 0 401.54 444.14
  Q 402.59 443.93 402.92 444.77
  A 0.58 0.57 73.3 0 0 403.56 445.12
  Q 403.81 445.08 404.83 445.66
  Q 419.78 454.26 427.40 471.69
  Q 428.12 473.33 427.98 473.57
  A 0.64 0.64 0.0 0 0 428.22 474.43
  Q 429.06 474.92 428.87 476.42
  A 1.17 1.15 28.6 0 0 429.15 477.34
  C 430.10 478.42 429.46 480.65 430.32 481.30
  A 0.49 0.49 0.0 0 1 430.05 482.17
  L 401.54 483.73
  A 0.72 0.72 0.0 0 1 400.82 483.25
  Q 400.29 481.70 400.29 481.36
  Q 400.33 479.73 398.92 476.26
  Q 396.10 469.28 388.66 465.92
  A 1.34 1.33 57.7 0 0 388.18 465.81
  Q 387.37 465.77 386.93 465.25
  A 1.12 1.10 66.2 0 0 385.95 464.86
  Q 384.72 465.01 382.81 464.14
  A 3.00 2.91 56.4 0 0 381.58 463.87
  L 373.73 463.87
  A 0.02 0.02 0.0 0 0 373.72 463.90
  Q 373.97 464.03 369.06 465.13
  Q 367.25 465.53 366.43 465.98
  Q 365.36 466.57 362.87 467.98
  Q 355.86 471.96 352.57 479.42
  Q 352.44 479.71 352.03 480.12
  Q 351.79 480.36 351.90 480.89
  Q 351.98 481.28 351.78 481.65
  Q 351.66 481.86 351.23 482.24
  A 1.06 1.04 -23.2 0 0 350.87 483.11
  Q 350.97 484.36 350.13 485.36
  A 1.18 1.18 0.0 0 0 349.86 486.26
  Q 350.08 488.13 349.15 489.54
  A 1.79 1.78 -28.9 0 0 348.87 490.50
  L 348.87 493.35
  A 1.66 1.12 60.6 0 1 348.85 493.60
  Q 346.87 503.82 348.74 513.77
  C 348.94 514.80 348.87 516.11 348.87 517.25
  A 2.36 2.26 33.5 0 0 349.09 518.23
  Q 350.00 520.20 349.86 521.85
  A 1.18 1.15 -64.5 0 0 350.16 522.73
  Q 350.98 523.63 350.88 524.87
  A 1.01 1.00 -68.6 0 0 351.25 525.73
  Q 352.00 526.32 351.86 527.39
  A 0.67 0.67 0.0 0 0 352.32 528.12
  Q 352.97 528.32 352.86 529.42
  A 0.61 0.60 -78.2 0 0 353.27 530.06
  Q 353.79 530.22 353.99 531.05
  Q 354.12 531.60 354.52 532.06
  Q 359.29 537.44 360.94 538.58
  Q 368.31 543.65 377.33 543.10
  Q 384.07 542.68 389.97 540.10
  Q 396.01 537.45 399.10 530.81
  Q 400.91 526.93 401.06 525.74
  Q 401.48 522.34 402.22 521.34
  A 0.96 0.96 0.0 0 1 403.12 520.97
  L 410.86 522.14
  A 1.28 0.99 8.1 0 0 411.04 522.15
  C 415.54 521.94 418.95 523.27 423.22 523.13
  Q 425.58 523.05 429.28 524.12
  A 0.93 0.83 48.6 0 0 429.60 524.16
  L 431.27 524.07
  A 0.41 0.40 -76.3 0 1 431.64 524.68
  Z"
/>
<path fill="#000000" d="
  M 675.37 564.88
  L 645.61 564.88
  A 0.49 0.48 90.0 0 1 645.13 564.39
  L 645.13 490.75
  A 5.81 5.63 -52.2 0 0 644.99 489.49
  Q 644.42 486.78 644.35 486.12
  Q 644.03 482.62 642.62 479.58
  Q 639.52 472.87 633.20 470.24
  Q 630.14 468.96 627.55 468.58
  Q 627.16 468.52 623.82 467.92
  Q 621.47 467.50 616.92 468.75
  A 3.33 3.29 36.6 0 1 616.00 468.88
  L 614.18 468.88
  A 0.77 0.75 15.4 0 0 613.53 469.24
  Q 613.07 470.00 611.89 469.85
  A 0.95 0.93 -70.0 0 0 610.99 470.28
  Q 610.66 470.81 610.03 470.80
  A 1.44 1.43 18.6 0 0 608.89 471.36
  Q 608.87 471.39 608.83 471.47
  A 0.85 0.80 1.6 0 1 608.46 471.80
  Q 605.54 473.12 603.40 476.17
  Q 601.92 478.29 601.38 479.60
  Q 599.98 482.99 599.79 485.54
  Q 599.56 488.61 599.01 490.54
  A 3.37 3.36 -36.8 0 0 598.87 491.50
  L 598.87 564.40
  A 0.48 0.47 90.0 0 1 598.40 564.88
  L 567.62 564.88
  A 0.49 0.49 0.0 0 1 567.13 564.39
  L 567.13 442.89
  A 0.46 0.45 90.0 0 1 567.58 442.43
  L 598.40 442.43
  A 0.47 0.47 0.0 0 1 598.87 442.90
  L 598.87 454.95
  A 0.67 0.67 0.0 0 0 600.09 455.33
  Q 604.35 449.13 610.88 444.83
  Q 612.07 444.05 612.40 444.09
  A 0.56 0.54 -72.4 0 0 612.96 443.79
  Q 613.39 442.93 614.37 443.15
  A 0.60 0.60 0.0 0 0 615.06 442.76
  Q 615.34 441.90 616.52 442.13
  A 0.85 0.84 -66.1 0 0 617.36 441.80
  Q 618.01 440.90 619.50 441.13
  A 1.02 1.01 26.0 0 0 620.41 440.82
  Q 621.08 440.12 622.40 440.13
  C 623.98 440.14 624.62 439.76 626.02 439.39
  A 6.48 6.34 36.7 0 1 627.57 439.18
  Q 635.10 439.05 640.13 439.17
  C 641.94 439.21 642.94 440.33 644.93 440.16
  A 3.20 3.14 51.0 0 1 646.07 440.29
  Q 649.47 441.38 651.25 442.13
  Q 659.77 445.74 664.35 451.21
  Q 668.68 456.38 671.42 462.90
  Q 672.02 464.33 671.91 464.64
  A 0.59 0.59 0.0 0 0 672.16 465.34
  Q 673.13 465.94 672.86 467.52
  A 0.99 0.97 -67.2 0 0 673.23 468.45
  C 674.55 469.44 673.24 471.65 674.44 472.69
  A 0.12 0.10 -75.4 0 1 674.48 472.78
  L 675.87 481.92
  A 0.56 0.26 -70.1 0 1 675.88 482.03
  L 675.87 564.38
  A 0.50 0.50 0.0 0 1 675.37 564.88
  Z"
/>
<path fill="#000000" d="
  M 905.87 512.28
  L 905.87 516.59
  A 4.93 4.67 38.0 0 0 906.08 517.99
  Q 907.03 521.10 906.87 523.48
  A 1.13 1.13 0.0 0 0 907.24 524.40
  Q 908.04 525.12 907.87 526.56
  A 0.87 0.86 -70.3 0 0 908.25 527.38
  Q 908.73 527.71 908.83 528.40
  Q 908.91 528.93 909.23 529.54
  Q 915.56 541.49 928.62 543.66
  C 933.49 544.47 936.22 544.03 941.48 543.37
  Q 944.17 543.04 947.08 541.93
  Q 953.81 539.37 956.92 532.84
  Q 957.16 532.34 957.19 531.88
  Q 957.22 531.35 957.63 531.26
  A 0.62 0.62 0.0 0 0 958.11 530.53
  Q 957.89 529.35 958.75 528.92
  A 0.74 0.72 -17.7 0 0 959.15 528.17
  Q 959.05 527.47 959.25 527.02
  Q 959.39 526.73 960.22 526.84
  Q 966.92 527.69 970.79 528.88
  C 971.89 529.21 973.71 528.98 974.61 529.84
  A 1.16 1.14 62.8 0 0 975.55 530.15
  Q 977.57 529.89 978.55 530.85
  A 0.95 0.94 -25.0 0 0 979.33 531.13
  Q 981.26 530.92 982.18 531.89
  A 0.75 0.75 0.0 0 0 982.71 532.11
  L 984.04 532.11
  A 1.09 1.04 64.0 0 1 984.72 532.36
  Q 985.80 533.28 986.96 533.15
  A 1.07 1.07 0.0 0 1 988.06 534.63
  Q 981.24 550.60 967.08 559.81
  Q 959.34 564.85 949.50 566.90
  Q 944.34 567.98 937.43 567.92
  C 929.69 567.86 925.65 568.20 922.78 567.19
  C 921.07 566.60 919.24 567.31 917.75 566.15
  A 1.45 1.42 59.6 0 0 916.65 565.85
  Q 914.97 566.09 914.19 565.17
  A 0.92 0.91 -25.5 0 0 913.30 564.86
  Q 912.08 565.10 910.70 563.99
  Q 909.92 563.36 908.93 563.11
  Q 907.78 562.82 907.63 562.82
  A 0.52 0.51 -9.2 0 1 907.16 562.49
  Q 906.92 561.82 906.06 561.84
  A 0.97 0.95 -29.2 0 1 905.51 561.69
  Q 891.36 552.96 883.34 538.33
  Q 883.11 537.91 883.05 537.33
  Q 883.01 536.86 882.59 536.75
  A 0.68 0.67 13.5 0 1 882.11 535.97
  Q 882.26 535.17 881.77 534.86
  A 1.41 1.40 17.8 0 1 881.12 533.61
  Q 881.12 533.47 881.12 533.39
  A 1.28 1.28 0.0 0 0 880.49 532.38
  Q 879.99 532.09 880.13 531.16
  Q 880.25 530.34 879.69 529.95
  Q 878.94 529.44 879.11 528.31
  A 0.94 0.93 -66.5 0 0 878.76 527.42
  Q 878.04 526.86 878.12 525.29
  A 1.56 1.52 -59.8 0 0 877.91 524.44
  Q 877.01 522.92 877.13 521.06
  A 1.68 1.65 32.0 0 0 876.89 520.07
  C 875.70 518.05 876.42 515.55 875.82 513.52
  Q 875.23 511.57 875.20 510.25
  Q 875.01 500.94 875.22 497.26
  C 875.34 495.03 876.10 493.07 876.15 490.64
  Q 876.19 488.41 876.86 487.42
  A 1.56 1.55 -30.8 0 0 877.12 486.41
  Q 876.95 484.37 877.89 483.30
  A 1.11 1.11 0.0 0 0 878.16 482.37
  Q 877.87 480.60 878.79 480.28
  A 0.51 0.51 0.0 0 0 879.13 479.80
  L 879.13 478.02
  A 0.51 0.51 0.0 0 1 879.47 477.54
  Q 880.17 477.29 880.13 476.17
  Q 880.10 475.25 880.57 474.99
  Q 880.99 474.75 881.07 474.24
  Q 881.17 473.61 881.28 473.37
  Q 883.07 469.57 885.15 466.19
  Q 896.05 448.51 915.55 441.65
  C 916.98 441.15 918.82 441.24 919.95 440.46
  A 1.83 1.83 0.0 0 1 921.06 440.13
  Q 922.75 440.20 925.04 439.46
  A 4.78 4.54 -53.2 0 1 926.28 439.25
  Q 933.19 438.99 940.71 439.19
  C 942.39 439.23 944.34 440.44 945.84 440.12
  A 0.87 0.75 -37.9 0 1 946.24 440.14
  L 953.53 442.39
  A 0.45 0.45 0.0 0 1 953.82 442.68
  Q 953.96 443.20 954.58 443.13
  Q 955.05 443.07 955.39 443.22
  Q 966.75 448.28 974.24 457.03
  Q 977.55 460.88 981.72 467.74
  Q 981.90 468.03 981.90 468.36
  Q 981.89 468.72 981.92 468.79
  Q 982.00 468.98 982.26 469.07
  Q 983.01 469.33 982.86 470.30
  A 0.78 0.78 0.0 0 0 983.37 471.17
  Q 984.09 471.43 983.87 472.39
  A 0.67 0.67 0.0 0 0 984.26 473.16
  Q 984.96 473.46 984.87 474.58
  A 0.98 0.97 -68.4 0 0 985.22 475.41
  Q 986.12 476.15 985.85 477.47
  A 0.78 0.76 21.3 0 0 986.21 478.27
  Q 987.14 478.82 986.85 480.49
  A 0.86 0.86 0.0 0 0 987.27 481.38
  Q 987.92 481.76 987.90 483.41
  A 3.52 3.42 37.1 0 0 988.06 484.45
  Q 989.83 489.81 989.86 490.76
  Q 990.18 500.76 989.94 511.44
  A 0.45 0.44 0.7 0 1 989.49 511.87
  L 906.28 511.87
  A 0.41 0.41 0.0 0 0 905.87 512.28
  Z
  M 959.18 490.55
  Q 959.33 484.78 957.09 478.81
  Q 954.91 473.01 950.91 469.76
  Q 948.18 467.54 948.16 467.52
  A 1.86 1.72 80.9 0 0 947.60 467.08
  L 943.53 464.94
  A 0.82 0.75 -32.5 0 0 943.12 464.87
  Q 942.01 464.99 941.35 464.23
  A 1.02 1.01 -23.8 0 0 940.47 463.89
  C 938.46 464.12 935.86 462.92 933.42 463.04
  Q 930.71 463.18 925.82 464.01
  A 1.71 1.65 20.8 0 0 925.10 464.32
  Q 924.66 464.64 922.80 465.00
  Q 922.21 465.12 920.71 466.02
  Q 917.85 467.75 916.97 468.45
  Q 912.96 471.63 910.54 476.80
  Q 910.51 476.85 910.33 476.94
  Q 910.13 477.04 910.12 477.08
  Q 909.74 478.25 908.18 482.46
  C 907.67 483.83 907.92 484.95 907.21 486.65
  Q 906.63 488.06 906.92 490.61
  A 0.59 0.58 86.7 0 0 907.50 491.13
  L 958.58 491.13
  A 0.60 0.60 0.0 0 0 959.18 490.55
  Z"
/>
</svg>
