<svg height="1em" style="flex:none;line-height:1" fill="currentColor" viewBox="0 0 1147 214" xmlns="http://www.w3.org/2000/svg">
<path d="
  M 240.71 166.95
  Q 239.93 166.84 240.10 165.89
  A 1.17 1.16 -65.7 0 0 239.67 164.74
  Q 239.65 164.72 239.62 164.70
  A 1.31 1.30 21.2 0 1 239.10 163.53
  Q 239.17 162.70 238.64 162.36
  Q 237.98 161.93 238.12 161.00
  Q 238.28 160.04 237.52 159.65
  A 0.75 0.74 13.9 0 1 237.12 158.99
  L 237.12 157.86
  A 1.50 1.48 24.9 0 0 236.76 156.89
  Q 235.91 155.90 236.13 154.63
  A 1.30 1.28 30.6 0 0 235.86 153.62
  Q 234.94 152.49 235.12 150.34
  A 2.15 2.02 37.1 0 0 234.94 149.29
  Q 234.15 147.54 234.16 146.97
  Q 234.25 143.97 233.35 140.52
  A 6.49 6.04 -54.3 0 1 233.15 138.94
  Q 233.08 130.77 233.16 124.76
  Q 233.20 121.61 233.98 119.22
  A 2.95 2.83 53.7 0 0 234.13 118.08
  Q 233.96 115.19 234.87 113.47
  A 2.21 2.14 -32.3 0 0 235.11 112.48
  C 235.11 111.57 235.04 110.48 235.70 109.57
  Q 236.34 108.68 236.10 107.24
  A 0.87 0.86 71.3 0 1 236.54 106.34
  Q 237.39 105.88 237.09 104.26
  A 0.83 0.81 -18.8 0 1 237.54 103.37
  Q 238.27 103.01 238.13 101.91
  Q 238.04 101.24 238.59 100.70
  Q 239.16 100.13 239.13 99.50
  Q 239.08 98.67 239.74 98.22
  Q 240.28 97.85 240.10 97.07
  A 0.62 0.62 0.0 0 1 240.42 96.38
  Q 240.86 96.15 241.31 94.80
  A 0.39 0.24 76.7 0 1 241.34 94.71
  Q 246.16 85.83 252.39 79.66
  Q 263.32 68.82 278.21 65.79
  Q 281.97 65.02 287.20 65.07
  Q 294.59 65.13 296.23 65.20
  Q 301.09 65.40 308.80 68.17
  Q 318.34 71.59 324.31 79.19
  Q 325.63 80.87 327.48 83.22
  A 0.37 0.36 -64.3 0 0 328.13 82.99
  L 328.13 21.83
  A 0.53 0.52 90.0 0 1 328.65 21.30
  L 360.19 21.30
  A 0.39 0.39 0.0 0 1 360.58 21.69
  L 360.58 196.27
  A 0.61 0.61 0.0 0 1 359.97 196.88
  L 329.30 196.88
  A 0.53 0.52 88.2 0 1 328.78 196.38
  L 328.06 183.42
  A 0.50 0.50 0.0 0 0 327.13 183.18
  Q 324.48 187.39 320.56 190.55
  Q 317.72 192.85 312.13 195.64
  A 1.74 1.74 0.0 0 1 311.32 195.84
  Q 311.04 195.85 310.98 195.85
  A 1.18 1.16 -75.0 0 0 310.09 196.37
  Q 309.63 197.07 308.38 196.85
  A 0.78 0.78 0.0 0 0 307.58 197.18
  Q 307.04 197.97 305.94 197.88
  C 304.41 197.75 303.63 198.89 301.98 198.86
  C 299.70 198.82 297.76 199.84 295.27 199.86
  C 288.24 199.91 283.15 200.39 279.69 199.02
  A 2.35 2.32 -35.9 0 0 278.65 198.86
  Q 276.78 199.01 275.47 198.26
  Q 274.61 197.76 273.97 197.87
  Q 273.43 197.96 272.96 197.60
  Q 272.58 197.31 271.99 197.10
  Q 267.31 195.39 266.05 194.68
  Q 251.06 186.28 242.72 170.97
  A 0.69 0.66 5.3 0 0 242.53 170.75
  Q 241.96 170.33 242.12 169.65
  A 0.55 0.54 -77.0 0 0 241.71 168.99
  Q 240.85 168.78 241.15 167.60
  A 0.53 0.53 0.0 0 0 240.71 166.95
  Z
  M 270.03 153.99
  Q 270.10 154.01 270.16 154.05
  A 1.11 1.10 -85.2 0 1 270.56 154.53
  Q 273.50 161.37 277.29 164.75
  Q 281.76 168.74 287.12 170.82
  Q 290.06 171.97 292.91 172.41
  Q 293.41 172.49 295.37 172.99
  A 4.10 4.06 -37.2 0 0 296.43 173.13
  L 302.48 173.13
  A 2.25 2.25 0.0 0 0 303.45 172.91
  Q 305.48 171.94 307.30 172.14
  A 1.05 1.04 21.6 0 0 308.26 171.73
  Q 308.72 171.14 309.66 171.11
  A 1.48 1.30 -54.5 0 0 310.17 170.99
  Q 317.42 167.59 322.32 161.08
  Q 324.01 158.84 324.21 157.68
  A 0.69 0.68 85.7 0 1 324.66 157.15
  Q 325.30 156.92 325.10 156.33
  Q 324.87 155.69 325.63 155.26
  Q 326.28 154.89 326.14 153.61
  Q 326.10 153.23 326.28 152.93
  Q 326.44 152.66 326.66 152.54
  A 0.87 0.86 72.5 0 0 327.12 151.64
  Q 326.93 150.28 327.90 148.66
  A 1.55 1.48 60.7 0 0 328.11 147.85
  Q 328.05 145.50 329.00 141.96
  A 3.79 3.77 53.0 0 0 329.14 140.94
  L 329.14 124.55
  A 5.53 5.33 -53.4 0 0 328.96 123.16
  Q 328.00 119.56 328.12 116.74
  A 1.80 1.77 30.9 0 0 327.85 115.70
  Q 326.97 114.28 327.13 112.39
  A 0.81 0.80 16.5 0 0 326.71 111.62
  Q 325.99 111.23 326.14 109.94
  A 1.13 1.11 27.8 0 0 325.86 109.06
  Q 325.75 108.94 324.10 105.56
  Q 323.29 103.92 321.95 102.26
  Q 318.14 97.53 313.19 95.07
  A 1.86 1.73 58.4 0 0 312.61 94.91
  Q 311.50 94.80 311.27 94.36
  A 0.92 0.91 75.0 0 0 310.41 93.86
  Q 308.40 93.97 306.67 92.88
  A 0.64 0.60 59.1 0 0 306.35 92.79
  L 291.75 92.79
  A 1.14 1.07 -60.8 0 0 291.12 92.99
  Q 289.46 94.14 288.06 93.85
  A 0.98 0.98 0.0 0 0 287.12 94.19
  Q 286.71 94.72 286.13 94.79
  Q 285.42 94.87 284.89 95.11
  Q 275.02 99.54 270.75 109.00
  A 3.76 1.26 -38.8 0 1 270.18 109.89
  Q 269.81 110.34 269.87 111.14
  Q 269.90 111.57 269.67 111.81
  Q 269.62 111.87 269.23 112.32
  A 1.65 1.63 -27.4 0 0 268.86 113.46
  Q 268.96 114.90 268.18 115.95
  A 1.54 1.52 62.6 0 0 267.88 116.92
  Q 267.96 119.64 267.02 122.87
  A 3.67 3.48 54.8 0 0 266.87 123.90
  L 266.87 138.29
  A 4.66 4.57 37.7 0 0 267.04 139.53
  Q 267.96 142.78 267.88 145.55
  A 2.08 2.01 -56.9 0 0 268.06 146.48
  C 268.97 148.46 268.66 149.89 269.65 151.78
  Q 270.04 152.53 269.85 153.73
  A 0.24 0.23 10.8 0 0 270.03 153.99
  Z"
/>
<path d="
  M 1005.37 195.88
  L 975.27 195.88
  A 0.34 0.33 -90.0 0 1 974.94 195.54
  L 974.94 26.75
  A 0.41 0.41 0.0 0 1 975.35 26.34
  L 1005.43 26.34
  A 0.44 0.44 0.0 0 1 1005.87 26.78
  Q 1005.87 87.07 1005.88 87.83
  Q 1006.00 100.78 1005.42 113.68
  Q 1004.91 125.25 1004.80 139.53
  Q 1004.73 149.98 1005.57 167.47
  Q 1006.17 179.69 1005.81 195.45
  A 0.44 0.44 0.0 0 1 1005.37 195.88
  Z"
/>
<path d="
  M 953.39 195.88
  L 924.59 195.88
  A 0.46 0.46 0.0 0 1 924.13 195.42
  L 924.13 184.47
  A 1.00 1.00 0.0 0 0 922.32 183.88
  Q 917.71 190.16 911.45 193.63
  A 1.64 0.18 -11.6 0 1 910.53 193.93
  Q 910.09 194.04 909.80 194.45
  A 0.99 0.98 17.8 0 1 908.97 194.87
  Q 908.80 194.86 908.67 194.86
  A 1.33 1.33 0.0 0 0 907.55 195.42
  Q 907.16 195.98 906.25 195.86
  A 0.96 0.96 0.0 0 0 905.35 196.23
  Q 904.72 197.04 903.32 196.87
  A 1.12 1.09 26.5 0 0 902.41 197.16
  Q 901.53 198.00 899.82 197.87
  A 2.53 2.49 36.1 0 0 898.74 198.03
  Q 896.80 198.81 896.50 198.81
  Q 883.13 199.03 878.76 198.79
  Q 878.20 198.76 877.19 198.12
  A 1.66 1.60 58.1 0 0 876.20 197.87
  Q 874.54 198.00 873.69 197.23
  A 0.97 0.97 0.0 0 0 872.98 196.97
  Q 872.28 196.99 869.60 195.89
  Q 862.29 192.89 856.36 187.61
  Q 848.77 180.86 843.27 170.21
  Q 843.10 169.88 843.07 169.57
  Q 843.04 169.21 842.71 169.01
  Q 842.04 168.62 842.11 168.30
  Q 842.11 168.29 842.17 167.71
  A 0.86 0.85 -75.3 0 0 841.68 166.86
  Q 840.95 166.53 841.12 165.49
  A 0.78 0.77 -71.3 0 0 840.73 164.68
  Q 840.04 164.31 840.12 163.46
  C 840.24 162.13 838.91 161.70 839.14 160.16
  A 1.10 1.08 27.5 0 0 838.84 159.24
  Q 837.91 158.28 838.14 156.67
  A 1.10 1.10 0.0 0 0 837.85 155.75
  Q 836.89 154.76 837.16 152.79
  A 1.51 1.49 31.7 0 0 836.91 151.76
  C 835.78 150.15 836.32 147.70 835.83 145.81
  Q 835.20 143.35 835.19 142.25
  Q 835.04 128.93 835.21 125.26
  Q 835.27 124.03 835.96 121.89
  A 3.65 3.62 52.5 0 0 836.12 120.64
  Q 835.99 117.86 836.88 116.24
  A 2.07 1.98 -32.7 0 0 837.12 115.25
  Q 837.10 114.23 837.31 112.98
  Q 837.76 110.38 838.11 109.98
  Q 838.23 109.84 838.88 109.08
  A 1.22 1.19 -29.4 0 0 839.15 108.15
  Q 838.92 106.53 839.76 106.23
  A 0.52 0.51 67.4 0 0 840.05 105.52
  Q 839.89 105.17 841.06 102.57
  Q 845.40 92.96 851.56 86.08
  Q 859.05 77.72 869.14 73.28
  C 869.66 73.05 869.80 73.18 870.21 73.11
  A 0.85 0.81 12.2 0 0 870.72 72.80
  Q 871.37 71.98 872.73 72.13
  A 1.34 1.34 0.0 0 0 873.64 71.89
  Q 874.90 70.96 876.69 71.13
  A 3.06 2.97 37.4 0 0 877.95 70.98
  L 879.25 70.53
  A 7.00 6.79 -54.2 0 1 881.38 70.15
  Q 887.40 70.05 894.09 70.22
  Q 895.30 70.25 896.51 70.79
  C 898.13 71.52 899.33 70.66 900.96 71.72
  Q 901.87 72.31 902.99 72.13
  A 1.26 1.25 -31.4 0 1 903.95 72.36
  Q 904.83 73.00 905.17 73.09
  Q 905.75 73.26 907.54 74.00
  Q 909.90 74.97 911.21 75.75
  Q 917.85 79.69 921.92 85.73
  A 0.66 0.66 0.0 0 0 923.13 85.36
  L 923.13 26.84
  A 0.49 0.49 0.0 0 1 923.62 26.35
  L 953.64 26.35
  A 0.23 0.23 0.0 0 1 953.87 26.58
  L 953.87 195.40
  A 0.48 0.48 0.0 0 1 953.39 195.88
  Z
  M 909.44 98.87
  Q 908.32 99.04 907.74 98.22
  A 0.89 0.89 0.0 0 0 906.93 97.85
  Q 905.36 97.99 904.32 97.16
  A 1.11 1.07 60.1 0 0 903.49 96.92
  Q 903.03 96.99 898.14 96.39
  Q 895.31 96.05 891.01 96.78
  Q 889.41 97.05 888.51 96.85
  A 0.99 0.99 0.0 0 0 887.60 97.13
  Q 886.74 98.04 885.05 97.85
  A 1.15 1.15 0.0 0 0 884.08 98.22
  Q 883.95 98.35 883.78 98.70
  Q 883.72 98.84 882.73 98.84
  Q 882.16 98.83 881.82 99.35
  Q 879.01 100.78 877.21 102.22
  Q 872.98 105.62 869.97 111.45
  A 1.00 0.91 -33.0 0 0 869.85 111.91
  Q 869.83 112.65 869.29 112.86
  A 0.67 0.67 0.0 0 0 868.87 113.61
  Q 869.07 114.73 868.18 115.58
  A 1.03 1.03 0.0 0 0 867.87 116.48
  Q 868.06 117.90 867.19 119.18
  A 1.73 1.71 -28.1 0 0 866.89 120.15
  Q 866.92 123.53 865.98 127.76
  A 5.29 5.07 51.9 0 0 865.86 128.96
  C 865.91 134.27 865.55 137.92 866.32 142.39
  Q 866.97 146.20 866.89 147.22
  C 866.78 148.63 867.91 150.06 867.87 151.96
  A 1.40 1.38 -65.0 0 0 868.20 152.89
  Q 868.99 153.84 868.83 155.04
  A 0.83 0.83 0.0 0 0 869.24 155.85
  L 869.46 155.98
  A 0.90 0.89 20.6 0 1 869.89 156.91
  Q 869.71 157.91 870.34 158.16
  A 0.83 0.82 -72.8 0 1 870.83 159.10
  Q 870.73 159.58 871.22 159.92
  Q 871.50 160.12 871.99 160.88
  Q 875.60 166.47 882.15 170.16
  Q 883.99 171.20 885.33 171.49
  Q 887.52 171.97 887.75 172.13
  Q 889.18 173.12 890.82 173.18
  Q 898.71 173.47 898.87 173.46
  Q 903.09 173.07 906.66 171.48
  Q 916.22 167.21 920.94 157.23
  Q 921.18 156.71 921.19 156.17
  Q 921.19 155.65 921.74 155.35
  A 0.74 0.74 0.0 0 0 922.13 154.57
  Q 921.86 152.74 922.70 152.35
  A 0.76 0.76 0.0 0 0 923.13 151.58
  Q 922.93 149.71 923.86 146.93
  A 3.49 3.44 -34.3 0 0 924.03 146.07
  Q 924.78 134.96 924.01 124.08
  A 3.44 3.21 -58.3 0 0 923.84 123.23
  Q 923.00 120.77 923.13 118.48
  A 1.26 1.22 -64.9 0 0 922.82 117.58
  Q 922.03 116.67 922.15 114.99
  A 1.16 1.14 22.3 0 0 921.74 114.03
  Q 920.97 113.39 921.13 112.20
  A 0.81 0.79 18.6 0 0 920.71 111.38
  Q 920.12 111.05 920.15 110.34
  A 0.87 0.84 33.8 0 0 920.06 109.92
  Q 917.08 104.08 911.44 100.03
  A 1.20 1.18 -29.7 0 0 910.61 99.81
  Q 910.13 99.86 910.12 99.44
  A 0.60 0.59 -4.8 0 0 909.44 98.87
  Z"
/>
<path d="
  M 92.50 94.88
  L 76.52 94.88
  A 3.78 3.68 32.7 0 0 75.05 95.18
  Q 73.02 96.07 71.30 95.87
  A 0.84 0.83 -69.4 0 0 70.49 96.24
  Q 69.94 97.09 68.46 96.83
  A 0.83 0.81 -69.7 0 0 67.61 97.23
  Q 67.32 97.74 66.77 97.79
  Q 66.15 97.85 65.69 98.09
  Q 59.53 101.29 57.00 104.41
  Q 54.48 107.53 52.23 113.77
  A 6.48 6.39 55.9 0 0 51.87 115.71
  Q 51.83 117.62 50.98 119.86
  A 2.00 1.98 -35.3 0 0 50.86 120.54
  L 50.86 196.37
  A 0.51 0.51 0.0 0 1 50.35 196.88
  L 18.62 196.88
  A 0.50 0.49 90.0 0 1 18.13 196.38
  L 18.13 68.17
  A 0.56 0.55 90.0 0 1 18.68 67.61
  L 48.60 67.61
  A 0.65 0.65 0.0 0 1 49.25 68.26
  L 49.25 85.93
  A 0.90 0.90 0.0 0 0 50.57 86.73
  Q 53.05 85.44 53.21 82.85
  A 0.95 0.95 0.0 0 1 53.57 82.17
  Q 54.26 81.65 54.17 81.49
  Q 53.97 81.15 54.57 80.13
  Q 59.23 72.22 64.58 70.10
  A 1.03 1.02 -85.3 0 0 65.09 69.66
  Q 65.50 68.91 66.15 69.10
  A 0.59 0.58 -66.9 0 0 66.83 68.82
  Q 66.92 68.65 67.25 68.33
  Q 67.51 68.09 67.84 68.12
  Q 68.93 68.24 69.44 67.54
  A 1.10 1.10 0.0 0 1 70.51 67.10
  Q 71.77 67.32 72.29 66.77
  Q 73.01 66.03 73.91 66.15
  Q 75.51 66.36 77.01 65.39
  A 1.09 1.04 26.8 0 1 77.54 65.23
  L 86.50 65.09
  A 2.34 2.26 55.4 0 1 87.39 65.27
  Q 89.77 66.33 92.22 66.06
  A 0.60 0.59 -3.0 0 1 92.88 66.65
  L 92.88 94.50
  A 0.38 0.38 0.0 0 1 92.50 94.88
  Z"
/>
<path d="
  M 214.23 100.12
  Q 214.95 100.32 214.87 101.53
  A 1.06 1.06 0.0 0 0 215.26 102.41
  Q 216.02 103.03 215.84 104.40
  A 0.87 0.86 16.4 0 0 216.33 105.29
  Q 216.48 105.35 216.63 105.52
  Q 216.83 105.73 216.82 106.04
  C 216.78 107.99 217.94 108.42 217.86 110.02
  Q 217.81 110.99 218.64 112.33
  Q 218.90 112.74 218.86 114.68
  A 2.18 2.11 -59.1 0 0 219.10 115.71
  Q 220.11 117.60 219.86 120.22
  A 2.59 2.55 40.8 0 0 219.93 121.09
  L 220.80 124.49
  A 0.87 0.78 41.8 0 1 220.82 124.67
  L 220.90 140.39
  A 0.76 0.76 0.0 0 1 220.14 141.16
  L 131.55 141.16
  A 0.78 0.78 0.0 0 0 130.77 141.96
  L 130.90 148.10
  A 7.33 7.20 -53.5 0 0 131.13 149.75
  Q 131.29 150.39 131.63 152.37
  Q 132.16 155.37 133.10 157.79
  Q 135.44 163.80 141.17 169.00
  Q 146.20 173.55 153.60 174.69
  Q 166.08 176.60 176.50 171.76
  Q 180.53 169.88 184.05 164.40
  A 0.93 0.90 -29.2 0 0 184.20 163.90
  Q 184.20 163.17 184.74 162.91
  A 0.77 0.76 70.1 0 0 185.14 162.05
  Q 184.92 161.15 185.74 160.67
  A 0.83 0.82 -20.2 0 0 186.14 159.83
  Q 185.92 158.50 187.10 157.29
  A 0.97 0.94 24.5 0 1 187.89 157.01
  Q 190.97 157.36 191.93 157.73
  C 193.42 158.30 195.88 157.84 197.08 158.85
  A 1.36 1.33 60.5 0 0 198.15 159.16
  Q 200.13 158.88 201.35 159.84
  A 1.34 1.32 60.7 0 0 202.32 160.12
  Q 204.18 159.91 205.37 160.91
  A 1.14 1.12 58.4 0 0 206.34 161.15
  Q 207.81 160.83 208.58 161.72
  A 1.17 1.17 0.0 0 0 209.46 162.12
  L 210.34 162.12
  A 1.21 1.09 -32.1 0 1 210.74 162.19
  L 217.49 164.51
  A 0.62 0.62 0.0 0 1 217.86 165.33
  Q 209.43 185.44 189.67 194.65
  Q 189.12 194.91 188.66 194.98
  Q 188.17 195.06 187.84 195.49
  Q 187.56 195.87 187.02 195.84
  Q 186.07 195.79 185.67 196.21
  Q 184.85 197.05 184.16 196.89
  Q 183.26 196.69 182.65 197.31
  A 0.95 0.95 0.0 0 1 182.23 197.54
  Q 178.50 198.45 174.85 199.17
  Q 170.90 199.94 167.59 199.91
  Q 163.55 199.87 153.05 199.84
  A 6.16 5.76 -35.6 0 1 151.51 199.64
  C 149.99 199.23 149.00 198.81 147.81 198.88
  Q 146.16 198.97 144.66 198.11
  C 143.93 197.69 143.36 198.05 142.72 197.85
  Q 135.54 195.56 133.99 194.77
  Q 123.04 189.24 115.61 180.90
  Q 108.26 172.66 103.17 161.33
  A 1.04 0.96 39.1 0 1 103.09 160.78
  Q 103.22 159.94 102.57 159.73
  A 0.69 0.68 -75.4 0 1 102.12 158.95
  C 102.40 157.52 100.91 157.28 101.11 155.90
  Q 101.23 155.13 100.68 154.62
  A 0.79 0.78 16.2 0 1 100.45 154.21
  L 98.88 147.45
  A 0.82 0.66 27.5 0 0 98.77 147.20
  Q 98.22 146.43 98.16 144.61
  Q 98.14 144.11 97.89 142.22
  Q 96.36 130.92 97.51 123.98
  Q 98.23 119.56 98.15 118.66
  Q 98.05 117.50 98.79 116.44
  C 99.57 115.34 98.60 113.77 99.73 112.52
  Q 100.24 111.96 100.15 110.83
  Q 100.06 109.79 100.20 109.65
  Q 100.45 109.41 100.70 109.30
  A 0.77 0.75 -17.8 0 0 101.14 108.47
  Q 100.84 106.88 101.77 106.26
  A 0.85 0.84 -22.4 0 0 102.13 105.41
  Q 101.96 104.46 102.68 103.96
  C 103.16 103.62 103.14 103.39 103.13 102.95
  Q 103.12 102.67 103.19 102.50
  Q 110.27 86.85 123.22 76.96
  Q 134.25 68.53 148.72 65.84
  Q 153.22 65.00 158.83 65.08
  C 163.66 65.14 168.12 64.64 171.29 65.79
  A 4.42 4.28 -33.8 0 0 172.83 66.07
  C 175.03 66.08 176.44 67.11 178.45 67.19
  Q 179.47 67.23 179.72 67.75
  A 0.73 0.71 71.8 0 0 180.51 68.16
  Q 181.84 67.89 182.58 68.75
  A 1.11 1.09 66.9 0 0 183.51 69.13
  Q 184.37 69.06 184.69 69.57
  A 1.35 1.33 72.0 0 0 185.81 70.15
  L 186.25 70.14
  A 0.55 0.54 -8.1 0 1 186.79 70.54
  Q 186.98 71.17 187.75 71.13
  A 0.68 0.67 -32.9 0 1 188.09 71.20
  Q 197.98 76.12 205.90 86.08
  Q 208.11 88.86 208.61 89.59
  Q 209.71 91.21 209.73 91.26
  Q 210.97 93.80 211.67 94.85
  Q 212.56 96.21 212.62 96.32
  Q 212.98 97.09 212.87 97.40
  A 0.51 0.50 -73.3 0 0 213.21 98.04
  Q 214.14 98.31 213.84 99.44
  A 0.56 0.56 0.0 0 0 214.23 100.12
  Z
  M 147.01 92.05
  Q 146.84 92.17 142.36 95.13
  Q 139.98 96.71 136.08 103.12
  A 0.66 0.58 -27.6 0 0 136.00 103.33
  Q 135.66 104.72 135.27 104.90
  A 0.70 0.69 74.3 0 0 134.87 105.63
  Q 135.03 106.80 134.17 107.56
  A 0.95 0.94 64.9 0 0 133.87 108.41
  Q 134.07 109.72 133.13 111.29
  A 0.83 0.78 -27.5 0 0 133.02 111.61
  L 132.34 117.54
  A 1.24 1.23 -86.9 0 0 133.56 118.91
  L 186.26 118.91
  A 1.68 1.68 0.0 0 0 187.92 117.01
  L 186.92 109.40
  A 0.32 0.31 25.3 0 0 186.87 109.27
  Q 185.98 108.14 186.13 106.46
  A 0.65 0.64 -73.5 0 0 185.79 105.83
  Q 185.15 105.49 185.15 105.22
  Q 185.16 104.51 185.14 104.45
  Q 183.79 101.65 182.62 100.15
  Q 178.53 94.91 172.85 92.06
  Q 172.27 91.78 171.89 91.79
  Q 171.35 91.81 171.18 91.34
  A 0.72 0.72 0.0 0 0 170.45 90.86
  Q 168.98 90.97 168.49 90.54
  A 2.16 2.14 70.3 0 0 167.40 90.02
  Q 160.02 88.76 153.03 90.03
  A 2.44 2.38 -62.4 0 0 152.36 90.25
  Q 150.79 91.02 149.56 90.86
  A 0.69 0.67 12.9 0 0 148.84 91.30
  Q 148.61 91.94 147.81 91.86
  A 1.30 1.28 -57.9 0 0 147.01 92.05
  Z"
/>
<path d="
  M 592.69 104.22
  Q 593.38 103.32 593.16 102.13
  Q 592.95 101.04 593.65 100.46
  Q 594.30 99.94 594.12 98.73
  Q 594.01 97.93 594.68 97.41
  Q 595.30 96.94 595.11 95.99
  A 0.74 0.73 72.2 0 1 595.52 95.18
  Q 596.14 94.89 596.15 93.85
  Q 596.15 93.07 596.66 92.92
  Q 597.10 92.80 597.07 92.23
  A 0.68 0.68 0.0 0 1 597.15 91.91
  Q 603.85 79.58 616.94 73.73
  Q 618.16 73.19 619.36 72.60
  Q 620.42 72.08 621.24 72.09
  Q 621.94 72.11 622.43 71.57
  Q 622.86 71.10 623.65 71.16
  C 625.77 71.34 626.88 70.33 628.67 70.21
  Q 641.03 69.38 644.26 69.67
  Q 649.10 70.09 653.49 70.21
  Q 655.12 70.25 656.74 70.96
  A 2.24 2.16 -34.7 0 0 657.77 71.13
  Q 659.45 71.00 660.58 71.77
  A 2.21 2.17 61.1 0 0 661.78 72.13
  L 662.48 72.13
  A 1.89 1.87 54.9 0 1 663.14 72.25
  Q 668.16 74.13 668.23 74.16
  Q 675.70 77.34 681.77 82.49
  Q 683.81 84.21 686.73 88.32
  Q 688.04 90.15 687.93 90.36
  A 0.42 0.42 0.0 0 0 688.18 90.96
  Q 688.94 91.20 688.90 91.98
  Q 688.87 92.52 689.37 92.90
  Q 690.11 93.48 689.85 94.44
  A 0.57 0.57 0.0 0 0 690.23 95.14
  Q 691.04 95.40 690.85 96.80
  A 0.96 0.94 24.4 0 0 691.18 97.65
  Q 692.07 98.42 691.86 99.97
  A 1.35 1.33 31.0 0 0 692.12 100.97
  Q 692.89 102.00 692.88 103.55
  C 692.87 106.04 693.87 107.82 693.87 110.22
  Q 693.88 143.34 693.88 195.34
  A 0.54 0.54 0.0 0 1 693.34 195.88
  L 667.64 195.88
  A 0.64 0.63 84.5 0 1 667.02 195.36
  Q 666.32 191.79 666.11 187.03
  Q 666.04 185.53 665.31 184.28
  A 0.60 0.60 0.0 0 0 664.41 184.12
  C 662.01 186.10 659.55 189.25 656.45 191.18
  Q 652.62 193.57 652.20 193.85
  A 0.54 0.53 34.2 0 1 651.76 193.93
  Q 651.09 193.77 650.79 194.47
  Q 650.59 194.94 650.06 194.87
  Q 649.76 194.83 648.09 195.54
  Q 646.12 196.39 645.71 196.63
  Q 645.46 196.78 644.21 196.92
  A 1.74 1.70 -63.0 0 0 643.50 197.16
  Q 642.18 198.00 640.53 197.87
  A 1.35 1.33 27.4 0 0 639.59 198.16
  Q 638.74 198.84 638.24 198.84
  Q 630.50 198.90 619.75 198.87
  Q 616.60 198.86 615.46 198.10
  A 1.50 1.49 58.0 0 0 614.48 197.87
  Q 612.61 198.07 611.34 197.22
  A 2.25 2.17 -25.9 0 0 610.23 196.86
  Q 610.21 196.86 609.56 196.86
  Q 609.12 196.86 608.88 196.59
  Q 608.10 195.70 607.05 195.87
  A 0.82 0.82 0.0 0 1 606.13 195.29
  Q 606.00 194.84 605.21 194.84
  A 1.36 1.34 60.1 0 1 604.52 194.65
  Q 602.60 193.45 600.13 191.84
  Q 597.93 190.41 596.28 188.70
  Q 589.81 182.04 587.40 174.16
  Q 586.07 169.80 586.07 166.86
  Q 586.07 164.73 586.24 157.06
  Q 586.26 156.28 586.87 155.40
  A 1.47 1.46 -29.9 0 0 587.13 154.45
  Q 586.97 152.58 587.80 151.71
  Q 588.26 151.23 588.13 150.51
  Q 587.96 149.66 588.52 149.34
  A 1.22 1.19 73.5 0 0 589.12 148.21
  Q 589.12 148.12 589.10 148.01
  A 1.11 1.11 0.0 0 1 589.62 146.94
  Q 590.11 146.63 590.11 146.19
  Q 590.09 145.17 590.58 145.01
  Q 591.16 144.81 591.13 144.16
  A 0.81 0.77 -31.5 0 1 591.25 143.71
  Q 597.46 134.04 607.56 128.89
  Q 607.87 128.73 608.22 128.35
  Q 608.56 127.98 609.03 128.12
  A 0.73 0.71 25.0 0 0 609.82 127.84
  Q 610.09 127.45 610.74 127.11
  Q 611.69 126.61 612.39 126.41
  Q 617.00 125.07 617.73 124.94
  A 1.77 1.69 22.4 0 0 618.27 124.73
  Q 619.53 123.93 621.50 124.14
  A 1.87 1.80 -55.3 0 0 622.53 123.93
  Q 624.35 122.95 627.07 123.14
  A 2.29 2.27 33.9 0 0 628.21 122.92
  Q 629.44 122.33 631.28 122.25
  C 637.15 122.02 642.11 121.16 648.68 121.13
  A 3.32 3.25 -53.1 0 0 649.66 120.98
  Q 652.06 120.27 652.86 120.14
  Q 654.80 119.83 656.83 118.60
  Q 659.17 117.19 661.57 113.99
  A 2.54 2.48 -19.1 0 0 662.00 113.13
  L 663.02 109.60
  A 3.00 2.97 43.7 0 0 662.97 107.83
  L 661.93 104.85
  A 2.75 2.46 23.4 0 0 661.69 104.33
  Q 658.55 99.08 652.98 95.96
  Q 652.28 95.57 648.20 94.09
  A 3.31 3.24 -32.6 0 0 647.29 93.90
  Q 639.86 93.42 634.61 94.06
  Q 633.78 94.16 631.54 95.02
  Q 626.86 96.83 624.06 101.78
  Q 623.31 103.10 621.93 107.28
  A 0.69 0.68 -78.2 0 1 621.22 107.75
  Q 616.22 107.20 615.79 107.03
  A 2.65 2.62 53.8 0 0 614.78 106.87
  Q 610.07 107.07 605.06 105.97
  A 4.53 4.41 50.1 0 0 603.99 105.86
  Q 599.34 105.96 592.92 104.81
  A 0.37 0.37 0.0 0 1 592.69 104.22
  Z
  M 615.80 155.15
  Q 615.78 155.81 615.82 160.37
  A 4.55 4.43 32.5 0 0 616.27 162.28
  Q 618.57 167.01 621.42 168.89
  Q 624.49 170.93 626.95 171.92
  Q 629.36 172.89 629.79 172.94
  Q 635.49 173.57 640.34 173.33
  Q 644.38 173.13 647.81 172.14
  Q 654.95 170.08 659.64 165.01
  A 2.84 2.69 81.3 0 0 660.09 164.36
  Q 661.17 162.20 661.97 161.41
  Q 662.72 160.67 662.81 159.43
  Q 662.92 157.85 663.87 156.79
  A 1.06 1.04 -28.2 0 0 664.13 155.96
  Q 663.99 154.90 664.84 152.83
  A 3.74 3.66 -32.5 0 0 665.11 151.67
  Q 665.45 146.47 664.33 141.88
  A 0.93 0.93 0.0 0 0 663.19 141.20
  Q 661.90 141.53 660.50 141.35
  Q 653.81 140.45 647.73 141.08
  Q 640.79 141.80 635.16 141.92
  A 4.23 4.13 -56.2 0 0 633.69 142.23
  Q 631.65 143.06 629.49 142.86
  A 1.04 1.04 0.0 0 0 628.54 143.29
  Q 628.10 143.91 627.24 143.84
  A 2.14 2.07 -57.0 0 0 625.98 144.13
  Q 625.21 144.59 622.61 145.97
  Q 619.44 147.67 617.33 150.95
  Q 615.86 153.23 615.80 155.15
  Z"
/>
<path d="
  M 576.76 155.47
  Q 576.69 155.80 576.13 156.38
  A 1.04 1.01 62.7 0 0 575.86 157.27
  Q 576.09 158.69 575.20 159.37
  A 0.90 0.89 66.8 0 0 574.87 160.21
  Q 574.95 160.74 574.75 161.76
  Q 574.35 163.84 573.66 164.43
  Q 573.02 164.98 572.92 165.69
  A 3.32 1.46 81.7 0 1 572.66 166.63
  Q 569.83 172.86 565.83 178.34
  Q 559.90 186.49 550.82 191.88
  Q 548.88 193.03 548.48 192.93
  A 0.41 0.41 0.0 0 0 547.99 193.20
  Q 547.65 194.12 546.60 193.86
  A 0.57 0.57 0.0 0 0 545.92 194.27
  Q 545.69 195.11 544.51 194.85
  A 0.81 0.81 0.0 0 0 543.65 195.22
  Q 543.08 196.16 541.63 195.84
  A 0.76 0.76 0.0 0 0 540.78 196.25
  Q 540.34 197.17 538.72 196.84
  A 1.10 1.09 28.6 0 0 537.75 197.12
  Q 536.70 198.13 534.81 197.85
  A 1.31 1.29 30.8 0 0 533.82 198.09
  Q 532.82 198.83 529.76 198.85
  Q 520.47 198.92 513.50 198.84
  Q 513.12 198.83 511.21 198.06
  A 2.41 2.30 -35.4 0 0 510.12 197.90
  Q 508.57 198.03 506.49 196.96
  Q 506.38 196.91 503.81 196.38
  Q 502.34 196.08 499.68 194.93
  Q 481.09 186.90 470.96 169.27
  Q 470.02 167.63 470.04 167.56
  A 0.45 0.45 0.0 0 0 469.74 167.00
  Q 469.06 166.78 469.14 166.04
  A 1.07 1.06 20.1 0 0 468.67 165.04
  Q 468.61 165.01 468.58 164.98
  A 1.24 1.24 0.0 0 1 468.09 163.70
  Q 468.25 163.05 467.70 162.84
  A 1.03 1.03 0.0 0 1 467.10 161.52
  Q 467.35 160.87 466.73 160.63
  A 0.98 0.97 16.5 0 1 466.12 159.52
  Q 466.30 158.59 465.77 158.02
  Q 464.95 157.14 465.09 156.88
  Q 465.13 156.81 465.15 156.02
  A 1.44 1.43 25.5 0 0 464.79 155.02
  Q 463.97 154.07 464.12 152.40
  A 1.61 1.61 0.0 0 0 463.89 151.38
  Q 462.88 149.72 463.15 147.23
  A 1.94 1.94 0.0 0 0 462.97 146.18
  Q 462.24 144.74 462.19 142.49
  Q 462.07 136.85 462.14 126.86
  Q 462.16 124.25 462.95 122.10
  A 2.60 2.44 -38.7 0 0 463.11 120.98
  Q 462.95 118.63 463.92 117.25
  A 1.31 1.30 59.3 0 0 464.15 116.34
  Q 463.92 114.56 464.79 113.67
  A 1.19 1.17 65.7 0 0 465.12 112.78
  Q 465.10 112.60 465.14 111.72
  Q 465.16 111.15 465.61 110.83
  Q 466.25 110.39 466.12 109.39
  Q 465.98 108.27 466.64 108.13
  Q 467.32 107.99 467.10 107.20
  Q 467.01 106.88 467.34 106.19
  Q 469.45 101.75 471.61 97.90
  A 16.28 16.03 80.8 0 1 473.61 95.08
  C 474.13 94.47 474.36 93.79 474.93 93.05
  Q 484.54 80.64 498.52 74.24
  A 1.56 1.55 -55.2 0 1 499.23 74.11
  Q 499.86 74.15 500.13 73.84
  Q 500.87 73.01 501.13 73.08
  Q 501.20 73.10 501.99 73.17
  A 1.19 1.17 22.6 0 0 502.98 72.77
  Q 503.68 71.98 505.25 72.13
  A 1.34 1.33 -61.3 0 0 506.20 71.85
  C 507.64 70.72 509.79 71.48 510.94 70.90
  Q 511.84 70.45 512.54 70.30
  A 6.82 6.32 36.5 0 1 513.99 70.14
  Q 524.33 70.11 529.69 70.14
  C 531.86 70.16 533.90 71.35 535.83 71.15
  Q 536.60 71.07 537.59 71.79
  Q 538.17 72.21 539.47 72.16
  Q 540.34 72.13 540.51 72.38
  Q 540.70 72.67 540.83 72.82
  A 0.97 0.95 -24.7 0 0 541.72 73.14
  Q 543.08 72.93 543.65 73.74
  A 0.90 0.89 69.7 0 0 544.47 74.12
  Q 545.64 74.02 545.81 74.69
  A 0.63 0.62 77.1 0 0 546.53 75.15
  Q 547.58 74.93 547.91 75.76
  A 0.59 0.59 0.0 0 0 548.56 76.12
  Q 548.81 76.08 549.82 76.67
  Q 564.78 85.25 572.41 102.69
  Q 573.12 104.32 572.98 104.56
  A 0.65 0.64 -60.8 0 0 573.22 105.43
  Q 574.04 105.90 573.87 107.40
  A 1.26 1.23 29.1 0 0 574.14 108.30
  Q 575.05 109.41 574.84 111.45
  A 0.82 0.82 0.0 0 0 575.17 112.20
  Q 575.43 112.39 575.44 112.43
  A 0.58 0.58 0.0 0 1 574.92 113.17
  L 546.57 114.74
  A 0.74 0.73 -11.2 0 1 545.82 114.24
  Q 545.24 112.56 545.25 112.33
  Q 545.33 110.68 543.91 107.21
  Q 541.04 100.23 533.61 96.90
  A 1.13 1.11 -33.0 0 0 533.17 96.81
  Q 532.37 96.80 531.94 96.26
  A 1.11 1.09 -21.9 0 0 530.97 95.86
  Q 529.68 96.00 527.64 95.08
  A 2.46 2.29 55.2 0 0 526.67 94.87
  L 519.64 94.87
  A 2.80 2.75 34.8 0 0 518.71 95.03
  Q 516.75 95.70 516.49 95.70
  Q 514.78 95.67 511.28 97.11
  Q 502.26 100.83 497.56 110.40
  Q 497.39 110.75 497.04 111.11
  Q 496.79 111.36 496.90 111.88
  Q 496.98 112.27 496.77 112.65
  Q 496.66 112.86 496.22 113.24
  A 1.06 1.06 0.0 0 0 495.87 114.11
  Q 495.97 115.37 495.12 116.37
  A 1.18 1.18 0.0 0 0 494.85 117.27
  Q 495.08 119.10 494.17 120.52
  A 1.92 1.87 -29.3 0 0 493.87 121.54
  L 493.87 123.88
  A 7.25 7.19 -40.0 0 1 493.75 125.19
  Q 491.92 135.02 493.72 144.65
  A 9.48 8.52 -53.3 0 1 493.87 146.30
  L 493.87 148.20
  A 2.53 2.50 -57.4 0 0 494.09 149.23
  Q 495.00 151.22 494.86 152.83
  A 1.23 1.19 -64.3 0 0 495.16 153.73
  Q 495.97 154.64 495.87 155.91
  A 0.91 0.89 -69.1 0 0 496.20 156.67
  Q 497.01 157.33 496.85 158.35
  A 0.69 0.68 -75.0 0 0 497.27 159.09
  Q 498.01 159.40 497.85 160.35
  A 0.64 0.63 -77.0 0 0 498.29 161.06
  Q 498.81 161.22 498.98 162.04
  Q 499.09 162.58 499.52 163.06
  Q 504.34 168.49 505.94 169.58
  Q 513.45 174.72 522.75 174.07
  Q 527.63 173.74 532.72 171.99
  Q 538.73 169.93 541.64 165.86
  Q 545.20 160.89 546.00 156.70
  Q 546.66 153.26 547.07 152.49
  A 0.94 0.94 0.0 0 1 548.05 151.97
  L 555.88 153.14
  A 0.83 0.80 46.3 0 0 556.10 153.15
  Q 559.80 152.90 564.43 153.96
  A 7.09 6.73 49.2 0 0 566.12 154.13
  Q 570.21 154.04 574.01 154.95
  Q 575.85 155.40 576.30 155.14
  A 0.31 0.31 0.0 0 1 576.76 155.47
  Z"
/>
<path d="
  M 820.38 195.88
  L 790.61 195.88
  A 0.49 0.49 0.0 0 1 790.12 195.39
  L 790.13 121.61
  A 0.35 0.31 41.4 0 0 790.12 121.53
  L 788.87 113.70
  A 0.26 0.25 9.3 0 0 788.73 113.51
  Q 787.96 113.12 788.14 111.68
  A 0.59 0.53 -58.5 0 0 788.08 111.35
  L 786.12 107.71
  A 0.27 0.17 31.7 0 0 786.09 107.65
  Q 782.69 102.99 777.65 101.00
  Q 774.93 99.93 772.64 99.60
  Q 772.55 99.59 768.83 98.89
  Q 766.79 98.50 761.98 99.74
  A 4.92 4.73 -50.5 0 1 760.87 99.87
  L 759.25 99.87
  A 0.92 0.90 -73.3 0 0 758.49 100.29
  Q 758.02 101.01 756.91 100.85
  A 0.94 0.94 0.0 0 0 755.99 101.28
  Q 755.66 101.81 755.03 101.81
  A 1.41 1.39 -70.6 0 0 753.90 102.36
  Q 753.87 102.39 753.83 102.46
  A 0.89 0.85 -85.8 0 1 753.45 102.80
  Q 750.54 104.14 748.40 107.17
  Q 746.90 109.32 746.37 110.62
  Q 745.03 113.90 744.81 116.40
  Q 744.50 119.79 743.99 121.73
  A 3.76 3.60 -38.9 0 0 743.87 122.66
  L 743.87 195.45
  A 0.43 0.43 0.0 0 1 743.44 195.88
  L 712.62 195.88
  A 0.50 0.49 90.0 0 1 712.13 195.38
  L 712.13 73.88
  A 0.45 0.45 0.0 0 1 712.58 73.43
  L 743.40 73.43
  A 0.48 0.47 90.0 0 1 743.87 73.91
  L 743.87 86.05
  A 0.63 0.63 0.0 0 0 745.02 86.40
  Q 749.47 79.97 756.21 75.61
  Q 756.91 75.16 757.43 75.12
  Q 757.87 75.09 758.01 74.70
  A 0.92 0.91 -72.6 0 1 759.08 74.14
  Q 759.77 74.31 760.00 73.80
  A 1.21 1.20 -75.5 0 1 761.18 73.10
  Q 761.25 73.11 761.34 73.11
  A 1.52 1.49 21.8 0 0 762.56 72.60
  Q 763.18 71.90 764.50 72.13
  A 1.09 1.07 26.4 0 0 765.45 71.82
  Q 766.15 71.08 767.31 71.14
  C 768.99 71.23 770.74 70.25 772.00 70.19
  Q 775.21 70.05 785.04 70.17
  Q 786.41 70.18 787.88 70.90
  Q 788.62 71.26 790.11 71.19
  A 3.15 3.13 52.3 0 1 791.32 71.35
  Q 794.71 72.48 796.24 73.12
  Q 804.28 76.48 809.22 82.03
  Q 812.11 85.26 815.80 92.32
  Q 815.91 92.52 815.90 93.00
  A 1.07 1.04 19.4 0 0 816.31 93.83
  Q 817.07 94.42 816.87 95.57
  A 0.82 0.80 -68.7 0 0 817.22 96.40
  Q 818.07 96.95 817.86 98.51
  A 1.07 1.07 0.0 0 0 818.24 99.48
  C 819.41 100.44 818.43 102.57 819.45 103.83
  A 1.14 1.10 -70.5 0 1 819.69 104.36
  L 820.87 112.82
  Q 820.87 112.84 820.87 112.86
  L 820.87 195.39
  A 0.49 0.49 0.0 0 1 820.38 195.88
  Z"
/>
<path d="
  M 1050.87 143.34
  L 1050.87 147.85
  A 3.60 3.46 37.2 0 0 1051.04 148.93
  Q 1052.06 152.08 1051.87 154.53
  A 1.01 1.00 -66.6 0 0 1052.19 155.35
  Q 1053.05 156.12 1052.86 157.55
  A 0.88 0.88 0.0 0 0 1053.24 158.38
  Q 1053.77 158.75 1053.87 159.59
  A 1.57 1.43 -64.2 0 0 1054.03 160.13
  Q 1058.57 169.21 1067.60 173.12
  Q 1067.86 173.23 1073.31 174.58
  C 1077.68 175.66 1082.06 175.03 1086.51 174.37
  Q 1089.45 173.92 1091.98 172.97
  Q 1098.84 170.37 1101.91 163.84
  Q 1102.16 163.31 1102.19 162.88
  Q 1102.22 162.34 1102.64 162.26
  A 0.62 0.62 0.0 0 0 1103.12 161.53
  Q 1102.89 160.39 1103.74 159.92
  A 0.81 0.81 0.0 0 0 1104.12 158.97
  Q 1104.04 158.71 1104.12 158.42
  A 0.80 0.79 -79.4 0 1 1104.99 157.82
  Q 1110.90 158.52 1115.35 159.75
  Q 1116.75 160.13 1117.71 160.18
  Q 1118.97 160.24 1119.58 160.83
  A 1.20 1.19 62.6 0 0 1120.54 161.14
  Q 1122.59 160.89 1123.53 161.83
  A 1.10 1.09 -26.5 0 0 1124.44 162.13
  Q 1126.16 161.92 1127.21 162.88
  A 0.92 0.90 -23.1 0 0 1127.83 163.12
  L 1129.03 163.12
  A 1.10 1.09 65.4 0 1 1129.75 163.39
  Q 1130.80 164.28 1131.98 164.16
  A 1.09 1.09 0.0 0 1 1133.08 165.69
  Q 1130.10 172.37 1126.27 177.53
  Q 1117.29 189.60 1103.17 195.40
  Q 1101.95 195.90 1101.55 195.88
  C 1100.15 195.83 1099.94 197.09 1098.22 196.87
  A 1.48 1.42 30.8 0 0 1097.19 197.11
  Q 1095.96 197.95 1094.08 197.87
  A 3.00 2.98 -54.9 0 0 1092.79 198.10
  Q 1091.08 198.80 1090.50 198.82
  Q 1088.09 198.92 1070.26 198.85
  Q 1069.81 198.85 1067.18 198.03
  A 3.89 3.77 50.1 0 0 1065.76 197.88
  Q 1063.94 198.03 1062.71 197.11
  A 1.38 1.35 -30.4 0 0 1061.67 196.85
  Q 1060.00 197.09 1059.18 196.17
  A 0.96 0.94 63.8 0 0 1058.29 195.86
  Q 1056.99 196.09 1055.78 194.86
  Q 1055.41 194.48 1053.94 194.07
  Q 1053.08 193.83 1052.65 193.80
  A 0.55 0.54 -9.5 0 1 1052.18 193.47
  Q 1051.89 192.82 1051.06 192.84
  A 1.10 1.07 -28.5 0 1 1050.49 192.68
  Q 1036.38 183.97 1028.35 169.33
  Q 1028.09 168.87 1028.07 168.39
  Q 1028.05 167.95 1027.50 167.68
  Q 1027.05 167.45 1027.12 166.83
  Q 1027.23 165.92 1026.51 165.67
  A 0.62 0.62 0.0 0 1 1026.11 164.96
  Q 1026.29 164.04 1025.71 163.59
  A 1.64 1.64 0.0 0 1 1025.11 162.30
  L 1025.11 161.75
  A 0.91 0.89 -73.1 0 0 1024.71 160.98
  Q 1024.00 160.52 1024.12 159.68
  C 1024.29 158.39 1022.96 158.05 1023.13 156.44
  A 1.69 1.69 0.0 0 0 1022.89 155.38
  Q 1022.02 153.93 1022.13 152.13
  A 1.89 1.88 -57.3 0 0 1021.92 151.15
  Q 1020.96 149.30 1021.13 146.80
  A 4.63 4.50 -51.3 0 0 1020.99 145.33
  C 1019.75 140.54 1020.11 135.57 1020.14 129.27
  C 1020.16 126.75 1021.28 123.74 1021.17 121.31
  Q 1021.10 119.93 1021.70 118.80
  C 1022.53 117.23 1021.68 116.07 1022.85 114.34
  Q 1023.31 113.68 1023.11 112.27
  A 0.84 0.83 73.4 0 1 1023.57 111.41
  Q 1024.38 111.03 1024.08 109.64
  Q 1023.92 108.87 1024.63 108.42
  Q 1025.22 108.05 1025.15 107.26
  Q 1025.06 106.18 1025.62 105.94
  Q 1026.12 105.73 1026.09 105.14
  Q 1026.08 104.66 1026.31 104.19
  Q 1031.76 93.06 1039.20 85.74
  Q 1048.32 76.78 1061.74 72.24
  A 2.26 2.14 33.6 0 1 1062.49 72.11
  L 1063.70 72.11
  A 0.95 0.91 21.2 0 0 1064.37 71.83
  C 1065.51 70.68 1067.40 71.37 1068.84 70.83
  C 1071.96 69.65 1077.43 70.09 1084.50 70.15
  Q 1087.59 70.17 1088.79 70.93
  A 1.51 1.47 56.8 0 0 1089.78 71.15
  Q 1091.60 70.91 1092.93 71.73
  C 1094.03 72.40 1095.35 71.81 1096.34 72.81
  Q 1096.68 73.14 1097.20 73.11
  Q 1097.83 73.08 1098.33 73.22
  A 0.69 0.68 89.1 0 1 1098.80 73.68
  Q 1098.96 74.20 1099.57 74.12
  Q 1100.02 74.06 1100.40 74.23
  Q 1111.77 79.32 1119.28 88.06
  Q 1122.43 91.73 1126.73 98.72
  Q 1126.84 98.91 1126.85 99.48
  Q 1126.86 99.93 1127.32 100.10
  A 0.83 0.82 -79.6 0 1 1127.86 100.89
  Q 1127.86 101.08 1127.85 101.23
  A 1.03 1.02 14.8 0 0 1128.41 102.19
  Q 1129.00 102.47 1128.85 103.36
  A 0.74 0.74 0.0 0 0 1129.24 104.14
  Q 1130.01 104.53 1129.87 105.59
  A 0.92 0.90 -68.5 0 0 1130.22 106.42
  Q 1131.09 107.06 1130.85 108.45
  A 0.83 0.82 -69.6 0 0 1131.23 109.29
  Q 1132.15 109.86 1131.85 111.53
  A 0.77 0.77 0.0 0 0 1132.25 112.35
  Q 1132.85 112.65 1132.85 113.79
  C 1132.86 115.31 1133.64 116.94 1134.23 119.28
  Q 1134.80 121.52 1134.90 123.30
  Q 1135.37 132.23 1134.89 142.47
  A 0.42 0.42 0.0 0 1 1134.47 142.87
  L 1051.34 142.87
  A 0.47 0.47 0.0 0 0 1050.87 143.34
  Z
  M 1104.14 121.59
  Q 1104.22 118.38 1103.42 114.49
  Q 1103.13 113.12 1102.87 111.84
  Q 1102.79 111.47 1101.99 109.47
  Q 1100.19 104.99 1096.62 101.24
  A 0.24 0.10 67.5 0 0 1096.56 101.18
  L 1092.90 98.32
  A 3.49 3.44 -11.8 0 0 1092.48 98.05
  L 1088.67 95.99
  A 1.18 1.12 54.6 0 0 1088.00 95.86
  Q 1086.95 95.97 1086.40 95.26
  A 1.01 1.00 66.7 0 0 1085.47 94.88
  C 1083.46 95.14 1080.93 93.88 1078.72 94.03
  Q 1075.52 94.24 1071.23 94.93
  A 2.10 1.80 22.8 0 0 1070.67 95.11
  Q 1068.87 95.99 1067.55 96.15
  Q 1066.53 96.27 1065.60 97.04
  Q 1065.51 97.12 1063.27 98.59
  Q 1061.78 99.57 1061.03 100.26
  Q 1057.59 103.43 1055.61 107.63
  Q 1055.50 107.86 1055.25 107.99
  A 0.66 0.66 0.0 0 0 1054.88 108.69
  Q 1055.01 109.54 1054.24 110.32
  A 1.23 1.23 0.0 0 0 1053.88 111.19
  Q 1053.88 112.61 1053.08 113.52
  A 1.01 0.98 58.1 0 0 1052.87 114.47
  Q 1053.17 115.43 1052.15 117.78
  Q 1051.63 118.97 1051.93 121.55
  A 0.66 0.65 86.5 0 0 1052.58 122.13
  L 1103.59 122.13
  A 0.55 0.55 0.0 0 0 1104.14 121.59
  Z"
/>
<rect x="379.39" y="117.52" width="65.48" height="30.36" rx="0.26"/>
</svg>
