<svg xmlns="http://www.w3.org/2000/svg" version="1.1" viewBox="0.00 0.00 291.00 696.00">
<path stroke="#c92b21" stroke-width="2.00" fill="none" stroke-linecap="butt" vector-effect="non-scaling-stroke" d="
  M 260.83 371.93
  L 259.02 376.35
  A 0.84 0.69 -20.7 0 1 258.91 376.54
  C 250.14 387.85 235.78 394.36 222.09 398.35
  Q 204.43 403.50 188.19 405.61
  Q 143.94 411.36 99.74 405.67
  A 0.44 0.44 0.0 0 0 99.24 406.12
  Q 99.24 406.19 99.29 407.50
  Q 99.53 414.10 99.46 442.57
  C 99.42 459.48 100.47 475.30 100.58 491.32
  C 100.66 502.23 97.57 512.89 85.69 514.63
  C 73.38 516.44 67.17 506.22 66.93 495.25
  Q 66.76 487.04 67.37 473.94
  C 68.54 448.86 68.77 420.43 68.55 402.00
  Q 68.55 401.41 69.02 399.80
  A 0.68 0.68 0.0 0 0 68.54 398.95
  C 56.97 395.87 43.72 390.41 35.32 381.44
  Q 31.94 377.83 30.17 373.32"
/>
<path fill="#ffbe26" d="
  M 157.78 319.79
  L 157.32 306.59
  A 2.35 2.17 -59.9 0 0 157.15 305.83
  Q 155.36 301.68 151.61 299.39
  C 145.53 295.68 139.53 298.68 136.01 304.46
  A 3.46 3.43 -26.3 0 0 135.56 305.77
  Q 134.76 312.31 135.41 319.33
  A 0.58 0.58 0.0 0 1 134.77 319.96
  Q 100.18 315.70 75.93 292.86
  Q 58.89 276.81 51.56 255.07
  Q 46.44 239.85 46.63 221.23
  Q 46.78 205.44 52.10 187.38
  Q 58.12 166.90 69.46 148.44
  Q 74.26 140.61 79.52 133.02
  Q 87.42 121.62 97.77 105.56
  Q 102.56 98.12 107.68 88.21
  Q 111.57 80.69 115.08 70.57
  Q 116.34 66.96 118.27 57.50
  C 119.85 49.74 118.84 39.76 120.56 32.44
  Q 122.47 24.31 130.28 24.33
  Q 132.47 24.34 136.00 27.23
  Q 161.76 48.31 184.42 77.28
  Q 207.99 107.42 224.45 142.30
  Q 230.56 155.26 235.31 169.66
  Q 242.24 190.68 243.78 209.50
  Q 244.48 218.09 243.71 233.26
  C 243.61 235.14 243.14 237.10 242.82 239.27
  C 237.91 272.65 216.09 301.63 184.23 313.81
  Q 171.55 318.66 157.93 319.92
  A 0.14 0.13 -2.0 0 1 157.78 319.79
  Z
  M 159.87 212.09
  Q 129.32 238.90 115.30 251.54
  Q 110.19 256.15 110.81 262.75
  A 3.63 3.59 31.7 0 0 111.04 263.70
  Q 113.50 270.07 120.15 272.02
  A 3.38 3.13 52.0 0 0 121.02 272.16
  Q 125.41 272.33 128.97 269.21
  Q 136.82 262.31 181.69 222.71
  C 187.21 217.83 190.39 214.35 188.19 207.50
  Q 187.40 205.05 180.77 199.82
  Q 165.87 188.05 129.77 158.49
  Q 122.23 152.31 115.05 158.31
  C 109.10 163.28 109.52 171.13 115.42 175.84
  Q 125.21 183.67 159.86 211.59
  A 0.33 0.33 0.0 0 1 159.87 212.09
  Z"
/>
<path fill="#e93826" d="
  M 260.83 371.93
  L 259.02 376.35
  A 0.84 0.69 -20.7 0 1 258.91 376.54
  C 250.14 387.85 235.78 394.36 222.09 398.35
  Q 204.43 403.50 188.19 405.61
  Q 143.94 411.36 99.74 405.67
  A 0.44 0.44 0.0 0 0 99.24 406.12
  Q 99.24 406.19 99.29 407.50
  Q 99.53 414.10 99.46 442.57
  C 99.42 459.48 100.47 475.30 100.58 491.32
  C 100.66 502.23 97.57 512.89 85.69 514.63
  C 73.38 516.44 67.17 506.22 66.93 495.25
  Q 66.76 487.04 67.37 473.94
  C 68.54 448.86 68.77 420.43 68.55 402.00
  Q 68.55 401.41 69.02 399.80
  A 0.68 0.68 0.0 0 0 68.54 398.95
  C 56.97 395.87 43.72 390.41 35.32 381.44
  Q 31.94 377.83 30.17 373.32
  Q 29.89 366.72 30.28 365.04
  Q 31.71 358.88 38.69 353.16
  Q 45.15 347.87 53.58 344.34
  Q 66.41 338.96 79.24 336.24
  Q 101.95 331.42 126.01 330.32
  Q 131.65 330.06 134.73 330.20
  A 0.52 0.52 0.0 0 1 135.23 330.72
  Q 135.14 363.91 135.19 366.73
  C 135.30 372.48 141.17 376.81 146.46 377.17
  A 3.97 3.67 37.8 0 0 147.63 377.07
  Q 153.38 375.62 156.19 371.22
  Q 157.57 369.05 157.63 365.50
  Q 157.72 359.84 157.65 330.72
  A 0.58 0.57 -0.5 0 1 158.22 330.15
  C 164.43 330.08 170.16 330.75 176.87 331.23
  Q 195.86 332.59 214.02 336.72
  C 227.11 339.70 240.39 344.20 251.20 352.06
  Q 252.45 352.97 255.94 356.80
  Q 261.74 363.18 260.83 371.93
  Z"
/>
<path fill="#a81d1c" d="
  M 260.83 371.93
  L 260.86 646.20
  A 5.10 4.86 -39.5 0 1 260.72 647.37
  C 259.04 654.36 254.08 659.86 248.31 663.79
  Q 235.77 672.34 220.21 676.97
  Q 208.43 680.47 195.72 682.68
  Q 194.43 682.90 193.31 682.87
  A 2.94 2.94 0.0 0 0 192.35 682.99
  Q 189.20 683.93 186.12 683.87
  A 4.18 4.10 -50.3 0 0 185.13 683.97
  C 181.23 684.87 176.96 684.78 173.65 685.32
  Q 170.14 685.90 165.84 685.82
  Q 164.42 685.79 157.18 686.32
  C 148.91 686.93 140.83 686.73 132.58 686.13
  C 127.93 685.79 123.61 685.94 118.76 685.22
  C 115.03 684.66 111.13 684.96 107.26 683.92
  C 106.57 683.74 105.19 683.92 104.26 683.77
  C 91.71 681.81 83.91 680.39 72.97 677.29
  Q 58.83 673.28 47.14 666.35
  Q 39.86 662.04 34.79 656.00
  Q 32.06 652.76 30.82 649.16
  Q 30.13 647.15 30.13 641.27
  Q 30.12 507.46 30.17 373.32
  Q 31.94 377.83 35.32 381.44
  C 43.72 390.41 56.97 395.87 68.54 398.95
  A 0.68 0.68 0.0 0 1 69.02 399.80
  Q 68.55 401.41 68.55 402.00
  C 68.77 420.43 68.54 448.86 67.37 473.94
  Q 66.76 487.04 66.93 495.25
  C 67.17 506.22 73.38 516.44 85.69 514.63
  C 97.57 512.89 100.66 502.23 100.58 491.32
  C 100.47 475.30 99.42 459.48 99.46 442.57
  Q 99.53 414.10 99.29 407.50
  Q 99.24 406.19 99.24 406.12
  A 0.44 0.44 0.0 0 1 99.74 405.67
  Q 143.94 411.36 188.19 405.61
  Q 204.43 403.50 222.09 398.35
  C 235.78 394.36 250.14 387.85 258.91 376.54
  A 0.84 0.69 -20.7 0 0 259.02 376.35
  L 260.83 371.93
  Z"
/>
</svg>
