<svg height="1em" style="flex:none;line-height:1" viewBox="0 0 709 408" xmlns="http://www.w3.org/2000/svg" fill="currentColor">
<path d="
  M 256.71 166.95
  Q 255.93 166.84 256.10 165.89
  A 1.17 1.16 -65.7 0 0 255.67 164.74
  Q 255.65 164.72 255.62 164.70
  A 1.31 1.30 21.2 0 1 255.10 163.53
  Q 255.17 162.70 254.64 162.36
  Q 253.98 161.93 254.12 161.00
  Q 254.28 160.04 253.52 159.65
  A 0.75 0.74 13.9 0 1 253.12 158.99
  L 253.12 157.87
  A 1.55 1.50 25.7 0 0 252.76 156.89
  Q 251.91 155.90 252.13 154.62
  A 1.27 1.26 30.6 0 0 251.87 153.63
  Q 250.92 152.45 251.14 150.29
  A 1.70 1.68 -56.4 0 0 250.95 149.33
  Q 249.99 147.46 250.12 144.93
  A 4.98 4.86 -50.3 0 0 250.01 143.57
  Q 249.17 139.98 249.16 139.02
  Q 249.05 127.29 249.20 123.76
  Q 249.31 121.19 249.98 119.23
  A 3.15 3.13 -37.7 0 0 250.14 118.02
  Q 249.95 115.20 250.87 113.47
  A 2.12 2.11 58.9 0 0 251.11 112.49
  C 251.11 111.52 251.04 110.49 251.70 109.57
  Q 252.34 108.66 252.10 107.24
  A 0.87 0.86 71.3 0 1 252.54 106.34
  Q 253.39 105.88 253.09 104.27
  A 0.83 0.82 72.1 0 1 253.54 103.37
  Q 254.26 103.01 254.12 101.91
  Q 254.04 101.25 254.59 100.70
  Q 255.18 100.11 255.13 99.46
  Q 255.07 98.73 255.76 98.23
  Q 256.28 97.85 256.10 97.06
  A 0.62 0.62 0.0 0 1 256.42 96.38
  Q 256.86 96.15 257.31 94.80
  A 0.39 0.24 76.7 0 1 257.34 94.71
  Q 262.16 85.83 268.39 79.66
  Q 279.32 68.82 294.21 65.79
  Q 297.96 65.02 303.20 65.07
  Q 310.56 65.13 312.23 65.20
  Q 317.09 65.40 324.80 68.17
  Q 334.34 71.59 340.31 79.18
  Q 341.39 80.54 343.49 83.22
  A 0.36 0.36 0.0 0 0 344.13 83.00
  L 344.13 21.83
  A 0.53 0.52 90.0 0 1 344.65 21.30
  L 376.19 21.30
  A 0.39 0.39 0.0 0 1 376.58 21.69
  L 376.58 196.27
  A 0.61 0.60 90.0 0 1 375.98 196.88
  L 345.31 196.88
  A 0.52 0.52 0.0 0 1 344.79 196.39
  L 344.06 183.42
  A 0.50 0.50 0.0 0 0 343.13 183.18
  Q 340.48 187.39 336.56 190.55
  Q 333.72 192.85 328.13 195.64
  A 1.74 1.74 0.0 0 1 327.32 195.84
  Q 327.04 195.85 326.98 195.85
  A 1.18 1.16 -75.0 0 0 326.09 196.37
  Q 325.63 197.07 324.38 196.85
  A 0.78 0.78 0.0 0 0 323.58 197.18
  Q 323.04 197.97 321.94 197.88
  C 320.41 197.75 319.63 198.89 317.98 198.86
  C 315.70 198.82 313.76 199.84 311.27 199.86
  C 304.24 199.91 299.15 200.39 295.69 199.02
  A 2.35 2.32 -35.9 0 0 294.65 198.86
  Q 292.78 199.01 291.47 198.26
  Q 290.61 197.76 289.96 197.87
  Q 289.43 197.96 288.96 197.60
  Q 288.58 197.31 287.99 197.10
  Q 283.30 195.38 282.05 194.68
  Q 267.06 186.28 258.72 170.97
  A 0.69 0.66 5.3 0 0 258.53 170.75
  Q 257.96 170.33 258.12 169.65
  A 0.55 0.54 -77.0 0 0 257.71 168.99
  Q 256.85 168.78 257.15 167.60
  A 0.53 0.53 0.0 0 0 256.71 166.95
  Z
  M 286.03 153.99
  Q 286.10 154.01 286.16 154.05
  A 1.11 1.10 -85.2 0 1 286.56 154.53
  Q 289.50 161.37 293.29 164.75
  Q 297.76 168.74 303.12 170.82
  Q 306.06 171.97 308.91 172.41
  Q 309.42 172.49 311.36 172.99
  A 4.26 4.20 -37.2 0 0 312.44 173.13
  L 318.49 173.13
  A 2.27 2.17 -56.6 0 0 319.45 172.91
  Q 321.48 171.94 323.31 172.14
  A 1.06 1.03 -67.6 0 0 324.24 171.74
  Q 324.73 171.12 325.69 171.10
  A 1.31 1.19 29.2 0 0 326.16 170.99
  Q 333.43 167.59 338.32 161.09
  Q 340.01 158.84 340.21 157.68
  A 0.69 0.68 85.7 0 1 340.66 157.15
  Q 341.30 156.92 341.10 156.33
  Q 340.87 155.69 341.63 155.26
  Q 342.28 154.89 342.14 153.61
  Q 342.10 153.24 342.28 152.93
  Q 342.44 152.66 342.66 152.54
  A 0.87 0.86 72.5 0 0 343.12 151.64
  Q 342.93 150.28 343.90 148.66
  A 1.55 1.48 60.7 0 0 344.11 147.85
  Q 344.05 145.50 345.00 141.96
  A 3.79 3.77 53.0 0 0 345.14 140.94
  L 345.14 124.55
  A 5.53 5.33 -53.4 0 0 344.96 123.16
  Q 344.00 119.56 344.12 116.74
  A 1.80 1.77 30.9 0 0 343.85 115.70
  Q 342.97 114.28 343.13 112.39
  A 0.81 0.80 16.5 0 0 342.71 111.62
  Q 341.99 111.23 342.14 109.94
  A 1.13 1.11 27.8 0 0 341.86 109.06
  Q 341.75 108.94 340.10 105.56
  Q 339.29 103.92 337.95 102.26
  Q 334.14 97.53 329.19 95.07
  A 1.86 1.73 58.4 0 0 328.61 94.91
  Q 327.50 94.80 327.28 94.36
  A 0.94 0.93 74.4 0 0 326.41 93.86
  Q 324.40 93.97 322.71 92.90
  A 0.69 0.67 60.9 0 0 322.34 92.79
  L 307.75 92.79
  A 1.32 1.28 -62.0 0 0 307.00 93.03
  Q 305.46 94.14 304.03 93.86
  A 1.04 1.03 22.5 0 0 302.98 94.29
  Q 302.62 94.82 302.09 94.80
  Q 301.62 94.78 300.75 95.18
  Q 291.08 99.54 286.71 109.03
  A 4.21 3.99 -14.9 0 1 286.18 109.89
  Q 285.81 110.34 285.87 111.14
  Q 285.90 111.57 285.67 111.81
  Q 285.62 111.87 285.24 112.32
  A 1.64 1.60 -27.3 0 0 284.86 113.46
  Q 284.96 114.90 284.18 115.95
  A 1.54 1.52 62.6 0 0 283.88 116.92
  Q 283.97 119.64 283.02 122.87
  A 3.78 3.50 -39.0 0 0 282.87 123.90
  L 282.87 138.29
  A 4.66 4.57 37.7 0 0 283.04 139.53
  Q 283.96 142.78 283.88 145.55
  A 2.08 2.01 -56.9 0 0 284.06 146.48
  C 284.97 148.46 284.67 149.89 285.65 151.78
  Q 286.03 152.53 285.85 153.73
  A 0.24 0.23 10.8 0 0 286.03 153.99
  Z"
/>
<path d="
  M 108.50 94.88
  L 92.52 94.88
  A 3.66 3.60 32.7 0 0 91.05 95.19
  Q 89.02 96.07 87.30 95.87
  A 0.84 0.83 -69.4 0 0 86.49 96.24
  Q 85.94 97.09 84.46 96.83
  A 0.83 0.81 -69.7 0 0 83.61 97.23
  Q 83.32 97.74 82.77 97.79
  Q 82.15 97.85 81.69 98.09
  Q 75.53 101.29 73.01 104.41
  Q 70.48 107.53 68.23 113.78
  A 5.95 5.92 -34.0 0 0 67.89 115.51
  Q 67.80 117.56 66.99 119.83
  A 2.51 2.36 56.2 0 0 66.86 120.62
  L 66.86 196.37
  A 0.51 0.51 0.0 0 1 66.35 196.88
  L 34.62 196.88
  A 0.50 0.49 90.0 0 1 34.13 196.38
  L 34.13 68.14
  A 0.53 0.53 0.0 0 1 34.66 67.61
  L 64.61 67.61
  A 0.64 0.64 0.0 0 1 65.25 68.25
  L 65.25 85.93
  A 0.90 0.90 0.0 0 0 66.57 86.73
  Q 69.05 85.44 69.21 82.85
  A 0.95 0.95 0.0 0 1 69.57 82.17
  Q 70.26 81.65 70.17 81.49
  Q 69.97 81.15 70.57 80.13
  Q 75.23 72.22 80.58 70.10
  A 1.03 1.02 -85.3 0 0 81.09 69.66
  Q 81.50 68.91 82.15 69.10
  A 0.59 0.57 -67.1 0 0 82.83 68.81
  Q 82.91 68.65 83.25 68.33
  Q 83.51 68.09 83.84 68.12
  Q 84.93 68.24 85.44 67.54
  A 1.10 1.10 0.0 0 1 86.51 67.10
  Q 87.78 67.31 88.29 66.77
  Q 89.01 66.03 89.91 66.15
  Q 91.61 66.37 93.18 65.27
  A 0.63 0.61 -61.4 0 1 93.53 65.16
  L 102.98 65.16
  A 0.76 0.70 55.4 0 1 103.29 65.23
  Q 105.72 66.34 108.22 66.06
  A 0.60 0.59 -3.0 0 1 108.88 66.65
  L 108.88 94.49
  A 0.39 0.38 90.0 0 1 108.50 94.88
  Z"
/>
<path d="
  M 230.21 100.11
  Q 231.00 100.35 230.87 101.54
  A 0.97 0.95 -68.7 0 0 231.23 102.39
  Q 232.00 102.99 231.85 104.39
  A 0.91 0.90 -73.7 0 0 232.34 105.30
  Q 232.51 105.39 232.63 105.52
  Q 232.83 105.73 232.82 106.04
  C 232.78 107.99 233.94 108.42 233.86 110.02
  Q 233.81 110.99 234.64 112.33
  Q 234.90 112.74 234.86 114.68
  A 2.18 2.11 -59.1 0 0 235.10 115.71
  Q 236.10 117.59 235.87 120.24
  A 2.56 2.43 -51.1 0 0 235.94 121.10
  L 236.80 124.51
  A 0.69 0.61 41.4 0 1 236.82 124.67
  L 236.90 140.41
  A 0.74 0.74 0.0 0 1 236.16 141.16
  L 147.56 141.16
  A 0.79 0.78 -0.7 0 0 146.77 141.96
  L 146.92 148.92
  A 2.36 2.15 37.1 0 0 147.05 149.61
  Q 147.41 150.62 147.65 152.38
  Q 148.00 154.91 149.09 157.74
  Q 151.46 163.90 157.35 169.15
  Q 162.48 173.71 170.11 174.77
  Q 182.37 176.49 192.49 171.76
  Q 196.52 169.88 200.05 164.40
  A 0.93 0.90 -29.2 0 0 200.20 163.90
  Q 200.20 163.17 200.73 162.91
  A 0.76 0.74 -20.0 0 0 201.14 162.06
  Q 200.92 161.15 201.74 160.67
  A 0.83 0.82 -20.2 0 0 202.14 159.83
  Q 201.92 158.50 203.09 157.29
  A 0.99 0.97 25.2 0 1 203.89 157.01
  Q 206.98 157.36 207.93 157.73
  C 209.52 158.34 211.79 157.82 213.16 158.90
  A 1.29 1.27 -30.1 0 0 214.16 159.16
  Q 216.11 158.86 217.38 159.86
  A 1.30 1.30 0.0 0 0 218.33 160.13
  Q 220.20 159.90 221.30 160.88
  A 1.23 1.22 59.9 0 0 222.33 161.16
  Q 223.85 160.87 224.49 161.65
  A 0.93 0.91 78.2 0 0 224.94 161.95
  L 232.19 164.14
  A 0.19 0.15 52.0 0 0 232.27 164.16
  Q 233.44 164.24 233.72 164.69
  A 0.91 0.90 40.6 0 1 233.79 165.52
  Q 224.72 186.79 203.31 195.67
  Q 202.82 195.87 202.25 195.91
  Q 201.76 195.95 201.40 196.49
  Q 201.09 196.96 200.53 196.86
  Q 199.36 196.66 198.65 197.30
  A 0.99 0.95 15.8 0 1 198.20 197.54
  Q 188.34 199.80 186.74 199.82
  Q 179.60 199.93 169.05 199.85
  A 6.29 6.23 -36.7 0 1 167.48 199.63
  Q 165.71 199.15 165.67 199.13
  C 163.90 198.54 162.55 199.15 160.65 198.11
  C 159.90 197.70 159.37 198.06 158.72 197.85
  Q 151.54 195.56 149.99 194.77
  Q 139.04 189.23 131.61 180.90
  Q 124.27 172.66 119.17 161.35
  A 1.11 1.10 37.5 0 1 119.09 160.77
  Q 119.22 159.93 118.54 159.71
  A 0.61 0.60 11.3 0 1 118.13 159.10
  Q 118.21 157.91 117.68 157.42
  C 116.64 156.48 117.57 155.58 116.69 154.66
  A 0.90 0.85 -75.9 0 1 116.46 154.25
  L 114.89 147.45
  A 0.68 0.64 21.8 0 0 114.78 147.21
  Q 114.23 146.45 114.16 144.61
  Q 114.14 144.11 113.89 142.22
  Q 112.36 130.94 113.51 123.98
  Q 114.23 119.57 114.16 118.66
  Q 114.08 117.46 114.80 116.44
  C 115.57 115.34 114.59 113.77 115.73 112.52
  Q 116.24 111.96 116.15 110.83
  Q 116.06 109.79 116.20 109.65
  Q 116.45 109.41 116.70 109.30
  A 0.77 0.75 -17.8 0 0 117.14 108.47
  Q 116.84 106.88 117.77 106.26
  A 0.84 0.83 -22.4 0 0 118.13 105.40
  Q 117.95 104.48 118.68 103.96
  C 119.16 103.62 119.14 103.41 119.13 102.95
  Q 119.12 102.68 119.20 102.50
  Q 126.18 86.97 139.22 76.97
  Q 148.80 69.62 161.58 66.45
  C 163.20 66.04 165.02 66.08 166.94 65.46
  Q 167.85 65.17 169.10 65.16
  Q 176.18 65.08 185.00 65.16
  C 186.15 65.17 187.70 66.13 189.08 66.11
  C 191.09 66.08 192.64 67.30 194.38 67.19
  Q 195.40 67.12 195.72 67.76
  A 0.71 0.71 0.0 0 0 196.50 68.15
  Q 197.84 67.88 198.59 68.76
  A 1.09 1.07 -22.5 0 0 199.51 69.13
  Q 200.37 69.06 200.69 69.57
  A 1.34 1.32 -17.3 0 0 201.81 70.15
  L 202.19 70.15
  A 0.69 0.68 80.5 0 1 202.84 70.62
  Q 203.04 71.20 203.58 71.13
  Q 203.92 71.08 204.41 71.34
  Q 216.97 78.07 224.77 90.02
  Q 225.45 91.06 227.65 94.53
  A 1.21 1.19 31.1 0 1 227.84 95.27
  Q 227.79 95.90 228.26 96.05
  A 0.89 0.89 0.0 0 1 228.88 96.90
  Q 228.88 96.98 228.87 97.12
  A 1.05 1.05 0.0 0 0 229.49 98.20
  Q 230.04 98.45 229.84 99.49
  A 0.54 0.53 14.9 0 0 230.21 100.11
  Z
  M 163.00 92.06
  Q 161.88 92.79 158.36 95.13
  Q 155.98 96.72 152.07 103.15
  A 0.99 0.92 69.7 0 0 151.99 103.34
  Q 151.66 104.72 151.27 104.90
  A 0.70 0.69 74.3 0 0 150.87 105.63
  Q 151.03 106.80 150.17 107.56
  A 0.95 0.94 64.9 0 0 149.87 108.41
  Q 150.07 109.72 149.13 111.29
  A 0.83 0.78 -27.5 0 0 149.02 111.61
  L 148.34 117.55
  A 1.23 1.22 -86.8 0 0 149.55 118.91
  L 202.25 118.90
  A 1.67 1.67 0.0 0 0 203.91 117.01
  L 202.93 109.41
  A 0.28 0.26 -69.9 0 0 202.87 109.27
  Q 201.98 108.14 202.13 106.46
  A 0.65 0.64 -73.5 0 0 201.79 105.83
  Q 201.15 105.49 201.15 105.22
  Q 201.16 104.51 201.14 104.45
  Q 199.79 101.64 198.62 100.15
  Q 194.53 94.91 188.85 92.06
  Q 188.27 91.78 187.89 91.79
  Q 187.35 91.81 187.18 91.34
  A 0.73 0.73 0.0 0 0 186.37 90.86
  Q 185.12 91.06 184.36 90.45
  A 2.09 2.04 -20.1 0 0 183.40 90.02
  Q 176.02 88.76 169.03 90.03
  A 2.67 2.38 -59.6 0 0 168.35 90.25
  Q 166.79 91.02 165.56 90.86
  A 0.69 0.67 12.9 0 0 164.84 91.30
  Q 164.61 91.94 163.81 91.86
  A 1.28 1.27 31.0 0 0 163.00 92.06
  Z"
/>
<rect x="395.39" y="117.52" width="65.48" height="30.36" rx="0.27"/>
<path d="
  M 562.38 380.88
  L 532.27 380.88
  A 0.33 0.33 0.0 0 1 531.94 380.55
  L 531.94 211.76
  A 0.42 0.42 0.0 0 1 532.36 211.34
  L 562.43 211.34
  A 0.44 0.43 -90.0 0 1 562.86 211.78
  Q 562.88 272.41 562.88 272.83
  Q 563.00 285.76 562.42 298.68
  Q 561.90 310.31 561.80 324.53
  Q 561.73 335.03 562.57 352.47
  Q 563.16 364.67 562.81 380.46
  A 0.43 0.43 0.0 0 1 562.38 380.88
  Z"
/>
<path d="
  M 510.40 380.88
  L 481.57 380.88
  A 0.45 0.44 -90.0 0 1 481.13 380.43
  L 481.13 369.47
  A 1.00 1.00 0.0 0 0 479.32 368.87
  Q 474.54 375.33 468.44 378.62
  A 2.90 1.14 2.8 0 1 467.52 378.93
  Q 467.08 379.01 466.79 379.49
  Q 466.52 379.94 466.04 379.87
  Q 464.99 379.73 464.73 380.20
  Q 464.32 380.97 463.57 380.85
  Q 462.79 380.74 462.13 381.43
  A 1.46 1.45 -67.6 0 1 461.09 381.87
  L 460.18 381.87
  A 1.14 1.13 -66.4 0 0 459.40 382.18
  Q 458.51 383.01 456.82 382.87
  A 2.35 2.32 35.9 0 0 455.78 383.03
  Q 453.82 383.77 453.49 383.78
  Q 446.72 384.00 436.95 383.86
  C 435.10 383.83 433.91 382.69 432.36 382.83
  C 431.12 382.94 430.82 381.95 429.74 381.91
  Q 429.20 381.89 428.63 381.68
  Q 413.62 376.21 404.38 362.16
  Q 401.52 357.80 401.03 356.50
  A 1.77 0.73 26.7 0 0 400.38 355.75
  Q 400.06 355.50 400.12 354.98
  A 0.96 0.95 24.5 0 0 399.80 354.13
  Q 399.27 353.67 399.26 353.67
  Q 399.05 353.57 399.13 353.02
  Q 399.27 352.00 398.56 351.81
  A 0.62 0.61 8.2 0 1 398.11 351.22
  L 398.11 350.18
  A 0.61 0.60 9.5 0 0 397.70 349.61
  Q 396.99 349.35 397.11 348.50
  C 397.32 347.16 395.89 346.77 396.14 345.02
  A 0.98 0.97 -65.3 0 0 395.82 344.14
  Q 394.82 343.26 395.16 341.64
  A 0.97 0.97 0.0 0 0 394.85 340.72
  Q 393.87 339.88 394.16 337.73
  A 1.32 1.31 31.0 0 0 393.91 336.75
  Q 393.17 335.73 393.15 333.87
  C 393.10 330.95 392.17 329.38 392.16 326.72
  Q 392.11 319.39 392.12 312.25
  Q 392.13 309.44 392.97 306.87
  A 1.53 1.25 61.1 0 0 393.04 306.49
  L 393.33 302.30
  A 0.56 0.54 68.0 0 1 393.46 301.97
  C 394.74 300.52 393.48 298.69 394.80 297.31
  Q 395.39 296.69 395.12 295.51
  A 1.01 1.00 -24.8 0 1 395.50 294.49
  Q 396.45 293.78 396.10 292.22
  A 0.73 0.72 71.7 0 1 396.51 291.40
  Q 397.21 291.10 397.12 290.31
  Q 397.06 289.74 397.40 289.01
  Q 398.90 285.81 399.18 285.22
  Q 402.69 277.90 407.98 271.75
  Q 416.67 261.66 428.93 257.21
  A 1.64 1.52 -53.0 0 1 429.48 257.11
  L 430.02 257.11
  A 0.97 0.96 26.0 0 0 430.61 256.91
  Q 431.88 255.94 433.78 256.15
  A 1.48 1.46 39.0 0 0 434.29 256.10
  L 437.71 255.19
  A 1.42 1.34 35.5 0 1 438.08 255.14
  Q 445.68 255.10 449.25 255.15
  Q 452.57 255.20 453.80 255.92
  A 1.65 1.63 57.1 0 0 454.74 256.13
  Q 455.67 256.05 457.28 256.28
  Q 459.67 256.62 460.50 257.12
  Q 461.29 257.59 461.57 257.85
  A 1.06 1.05 62.5 0 0 462.44 258.13
  Q 463.36 257.99 463.81 258.53
  Q 464.41 259.25 464.94 259.09
  Q 465.30 258.99 466.34 259.76
  A 1.19 0.03 26.9 0 0 467.21 260.23
  Q 474.19 263.87 478.94 270.77
  A 0.65 0.65 0.0 0 0 480.13 270.40
  L 480.13 211.83
  A 0.48 0.48 0.0 0 1 480.61 211.35
  L 510.39 211.35
  A 0.48 0.48 0.0 0 1 510.87 211.83
  L 510.87 380.41
  A 0.47 0.47 0.0 0 1 510.40 380.88
  Z
  M 466.46 283.88
  Q 465.28 284.01 464.71 283.21
  A 0.87 0.87 0.0 0 0 463.87 282.85
  Q 462.68 283.03 461.48 282.29
  A 1.81 1.75 -23.3 0 0 460.85 282.05
  Q 453.09 280.71 445.01 282.07
  A 1.86 1.76 -66.2 0 0 444.34 282.35
  Q 443.40 283.02 442.30 282.84
  A 1.32 1.30 -63.9 0 0 441.09 283.26
  Q 441.07 283.28 440.97 283.42
  A 1.01 1.00 19.8 0 1 440.06 283.84
  Q 439.34 283.78 439.03 284.09
  A 2.47 0.93 -58.5 0 1 438.26 284.69
  Q 433.70 286.86 430.14 291.39
  Q 428.78 293.13 427.09 296.22
  Q 426.87 296.62 426.82 297.15
  Q 426.78 297.65 426.30 297.85
  A 0.73 0.72 -16.9 0 0 425.87 298.64
  Q 426.07 299.72 425.18 300.58
  A 1.02 1.01 -25.4 0 0 424.86 301.46
  Q 425.06 302.93 424.16 304.23
  A 1.60 1.59 61.7 0 0 423.87 305.21
  Q 423.99 308.28 423.00 312.56
  A 4.15 3.58 56.0 0 0 422.89 313.49
  C 422.86 318.75 422.51 322.94 423.31 327.39
  Q 423.99 331.20 423.88 332.22
  C 423.75 333.51 424.90 335.13 424.88 336.99
  A 1.38 1.35 -65.1 0 0 425.20 337.90
  Q 425.88 338.70 425.85 339.76
  A 1.52 1.49 -67.7 0 0 426.30 340.86
  Q 426.31 340.87 426.46 340.98
  A 1.03 1.03 0.0 0 1 426.88 341.98
  Q 426.73 342.95 427.35 343.17
  A 0.71 0.70 14.6 0 1 427.81 343.94
  Q 427.71 344.56 428.11 344.85
  Q 428.62 345.22 428.90 345.67
  Q 432.46 351.37 438.61 354.84
  Q 438.84 354.97 439.43 355.15
  Q 439.84 355.27 440.07 355.58
  A 1.34 1.34 0.0 0 0 441.02 356.10
  Q 442.34 356.21 442.57 356.57
  Q 442.80 356.92 444.36 357.32
  Q 462.95 362.04 474.33 348.20
  Q 475.39 346.92 476.22 345.37
  Q 477.71 342.63 478.01 342.27
  A 0.60 0.57 61.9 0 0 478.14 341.80
  Q 477.98 340.78 478.73 340.38
  A 0.79 0.79 0.0 0 0 479.14 339.57
  Q 478.86 337.77 479.70 337.34
  A 0.78 0.78 0.0 0 0 480.14 336.55
  Q 479.94 334.71 480.86 331.94
  A 3.77 3.49 58.0 0 0 481.03 331.05
  Q 481.77 320.16 481.02 309.28
  A 4.40 4.20 -56.6 0 0 480.83 308.23
  Q 480.25 306.33 480.24 305.54
  Q 480.23 303.35 478.70 299.12
  Q 477.72 296.40 477.10 295.11
  Q 474.11 288.95 468.24 284.91
  A 0.71 0.69 -33.3 0 0 467.71 284.81
  Q 467.14 284.94 467.12 284.44
  A 0.60 0.58 -4.1 0 0 466.46 283.88
  Z"
/>
<path d="
  M 149.72 289.24
  C 150.78 288.06 149.43 286.27 150.77 285.35
  A 0.87 0.86 69.2 0 0 151.14 284.52
  Q 150.95 282.85 151.74 282.37
  A 0.85 0.84 68.3 0 0 152.12 281.48
  Q 151.92 280.45 152.74 280.00
  A 0.57 0.57 0.0 0 0 153.02 279.61
  Q 153.26 278.45 154.63 276.09
  Q 161.49 264.23 174.47 258.36
  Q 175.01 258.11 175.64 258.03
  Q 176.14 257.97 176.56 257.45
  Q 176.84 257.09 177.54 257.15
  Q 178.66 257.24 179.25 256.74
  C 180.50 255.67 181.86 256.43 183.26 255.84
  Q 184.57 255.28 185.58 255.21
  Q 198.30 254.39 201.26 254.66
  Q 205.97 255.09 210.49 255.21
  Q 212.29 255.26 213.55 255.89
  A 2.20 2.19 -32.6 0 0 214.61 256.12
  Q 216.79 256.03 217.73 256.86
  A 1.21 1.20 61.4 0 0 218.70 257.15
  Q 220.21 256.92 221.12 257.76
  A 1.19 1.12 67.6 0 0 221.76 258.05
  Q 223.01 258.22 225.12 259.11
  Q 232.96 262.46 238.89 267.62
  Q 241.21 269.63 243.73 273.31
  Q 245.03 275.21 244.93 275.40
  A 0.38 0.38 0.0 0 0 245.15 275.95
  Q 245.95 276.20 245.90 276.98
  Q 245.87 277.52 246.37 277.90
  Q 247.11 278.48 246.85 279.45
  A 0.56 0.56 0.0 0 0 247.23 280.14
  Q 248.04 280.39 247.85 281.79
  A 0.96 0.96 0.0 0 0 248.18 282.65
  Q 249.07 283.43 248.86 284.97
  A 1.34 1.31 -60.3 0 0 249.12 285.97
  Q 249.89 287.00 249.88 288.55
  C 249.87 291.05 250.86 292.82 250.87 295.22
  Q 250.87 301.16 250.88 380.37
  A 0.52 0.51 0.0 0 1 250.36 380.88
  L 224.58 380.88
  A 0.64 0.63 -4.2 0 1 223.95 380.34
  Q 223.14 374.78 223.03 371.28
  Q 223.00 370.40 222.33 369.26
  A 0.62 0.62 0.0 0 0 221.38 369.12
  Q 218.82 371.45 215.92 374.41
  Q 215.17 375.18 210.44 378.03
  A 1.93 0.31 -26.6 0 0 209.65 378.60
  Q 209.35 378.89 208.87 378.86
  A 1.11 1.08 16.9 0 0 207.84 379.39
  Q 207.81 379.44 207.79 379.47
  A 0.92 0.91 20.6 0 1 206.88 379.88
  Q 205.99 379.73 205.70 380.26
  Q 205.32 380.97 204.62 380.85
  Q 203.81 380.71 203.07 381.43
  A 0.86 0.85 14.5 0 1 202.69 381.65
  L 195.24 383.64
  A 5.85 5.63 36.1 0 1 193.85 383.83
  Q 188.95 383.91 177.01 383.87
  Q 173.46 383.86 172.45 383.11
  A 1.33 1.29 -29.8 0 0 171.50 382.87
  Q 169.54 383.13 167.73 381.93
  Q 167.03 381.47 165.23 381.10
  Q 163.94 380.83 163.87 380.84
  A 0.67 0.65 -11.9 0 1 163.21 380.42
  Q 162.98 379.87 162.23 379.86
  A 1.34 1.34 0.0 0 1 161.51 379.65
  Q 156.11 376.22 155.13 375.39
  Q 148.83 370.07 145.16 361.44
  Q 144.34 359.48 144.11 357.98
  Q 143.95 356.96 143.34 355.30
  A 3.94 3.87 36.7 0 1 143.11 353.82
  Q 143.14 353.11 143.13 343.76
  Q 143.13 341.80 143.88 340.42
  A 1.99 1.93 -33.4 0 0 144.12 339.34
  Q 144.00 337.46 144.85 336.64
  A 1.03 1.01 63.3 0 0 145.14 335.74
  Q 144.93 334.47 145.72 334.19
  A 0.65 0.65 0.0 0 0 146.13 333.43
  Q 145.89 332.36 146.76 331.84
  A 0.73 0.72 -19.9 0 0 147.10 331.13
  Q 146.97 330.30 147.95 329.77
  Q 148.11 329.68 148.12 329.28
  Q 148.14 328.97 148.24 328.80
  Q 154.09 319.31 164.56 313.88
  Q 164.87 313.72 165.21 313.35
  Q 165.56 312.98 166.02 313.12
  A 0.74 0.74 0.0 0 0 166.82 312.84
  Q 167.02 312.55 167.79 312.17
  Q 168.60 311.78 169.46 311.49
  Q 173.33 310.18 174.70 309.96
  A 1.32 1.22 -63.3 0 0 175.10 309.81
  Q 176.56 308.96 178.59 309.12
  A 1.79 1.76 -55.9 0 0 179.54 308.93
  Q 181.37 307.96 183.94 308.13
  A 2.26 2.25 -54.2 0 0 184.98 307.96
  C 187.81 306.76 191.83 307.31 194.74 306.81
  Q 199.33 306.02 205.75 306.11
  Q 206.98 306.13 213.01 304.09
  A 3.36 3.33 17.2 0 0 213.95 303.60
  Q 225.39 295.08 215.16 284.84
  Q 212.07 281.74 208.49 280.26
  Q 205.26 278.92 202.47 278.75
  Q 198.84 278.53 191.53 278.99
  Q 191.47 278.99 188.39 280.20
  Q 186.10 281.11 185.36 281.71
  C 182.03 284.45 180.06 287.87 179.02 292.25
  A 0.68 0.68 0.0 0 1 178.28 292.77
  Q 173.30 292.18 172.81 292.03
  A 3.65 3.62 -37.5 0 0 171.56 291.87
  Q 166.79 292.03 162.13 290.97
  A 4.77 4.59 -37.9 0 0 160.99 290.85
  Q 156.48 290.98 149.92 289.82
  A 0.35 0.35 0.0 0 1 149.72 289.24
  Z
  M 172.79 340.24
  Q 172.78 341.19 172.83 345.36
  A 4.53 4.50 -58.2 0 0 173.27 347.26
  Q 175.55 352.01 178.56 353.99
  Q 181.75 356.09 184.06 356.97
  Q 186.57 357.93 186.79 357.95
  Q 192.50 358.56 197.37 358.33
  Q 201.18 358.15 204.80 357.12
  Q 212.06 355.07 216.66 349.98
  A 2.95 2.74 81.5 0 0 217.14 349.28
  Q 218.16 347.30 218.77 346.90
  A 0.86 0.85 69.1 0 0 219.14 346.06
  Q 219.03 345.33 219.53 344.89
  C 220.48 344.05 219.83 342.94 220.83 341.88
  A 1.12 1.10 -26.5 0 0 221.13 341.01
  Q 221.00 339.86 221.81 337.93
  A 3.88 3.86 58.2 0 0 222.10 336.68
  Q 222.45 331.48 221.33 326.88
  A 0.92 0.92 0.0 0 0 220.18 326.21
  Q 219.00 326.55 217.50 326.32
  Q 211.78 325.47 206.23 326.00
  Q 198.52 326.73 192.07 326.94
  A 3.99 3.77 -54.7 0 0 190.82 327.19
  Q 188.54 328.07 186.43 327.85
  A 0.98 0.98 0.0 0 0 185.52 328.30
  Q 185.12 328.94 184.27 328.85
  A 2.07 2.02 32.5 0 0 182.99 329.12
  Q 182.00 329.71 179.80 330.88
  Q 176.39 332.69 174.33 335.93
  Q 172.82 338.32 172.79 340.24
  Z"
/>
<path d="
  M 377.41 380.88
  L 347.62 380.88
  A 0.50 0.50 0.0 0 1 347.12 380.38
  L 347.13 306.73
  A 0.53 0.48 42.1 0 0 347.12 306.63
  L 345.88 298.69
  A 0.20 0.19 -84.9 0 0 345.76 298.54
  Q 344.95 298.17 345.15 296.65
  A 0.48 0.48 0.0 0 0 345.09 296.35
  L 343.12 292.71
  Q 343.11 292.70 343.10 292.69
  Q 339.66 287.91 334.46 285.93
  Q 331.75 284.89 329.56 284.59
  Q 328.55 284.45 325.82 283.90
  Q 323.85 283.49 319.13 284.71
  Q 318.18 284.95 317.30 284.87
  Q 315.88 284.74 315.50 285.29
  Q 315.02 285.97 314.33 285.86
  Q 313.53 285.73 313.05 286.23
  Q 312.27 287.03 311.84 286.91
  Q 311.14 286.70 310.94 287.39
  A 0.57 0.56 88.0 0 1 310.60 287.76
  Q 307.63 288.98 305.41 292.17
  Q 303.94 294.28 303.38 295.64
  Q 301.96 299.15 301.79 301.34
  Q 301.53 304.74 300.99 306.76
  A 3.61 3.44 -38.9 0 0 300.87 307.67
  L 300.87 380.44
  A 0.44 0.43 90.0 0 1 300.44 380.88
  L 269.62 380.88
  A 0.49 0.49 0.0 0 1 269.13 380.39
  L 269.13 258.88
  A 0.45 0.44 90.0 0 1 269.57 258.43
  L 300.41 258.43
  A 0.47 0.46 90.0 0 1 300.87 258.90
  L 300.87 270.97
  A 0.66 0.66 0.0 0 0 302.08 271.34
  Q 306.49 264.93 313.22 260.61
  Q 313.93 260.16 314.41 260.10
  Q 314.95 260.03 315.18 259.52
  A 0.70 0.70 0.0 0 1 315.96 259.12
  Q 316.94 259.32 317.21 258.51
  A 0.64 0.64 0.0 0 1 317.95 258.09
  Q 318.90 258.31 319.43 257.72
  Q 320.07 257.01 320.74 257.12
  C 322.38 257.39 322.91 255.95 324.45 256.15
  C 325.96 256.34 328.28 255.15 330.21 255.14
  Q 336.94 255.08 342.11 255.17
  Q 343.58 255.20 344.78 255.88
  C 345.56 256.31 347.18 256.11 348.38 256.40
  Q 350.03 256.79 353.39 258.19
  Q 367.57 264.05 373.12 278.54
  A 1.05 1.03 -79.7 0 0 373.40 278.95
  Q 374.08 279.57 373.86 280.51
  A 0.83 0.81 23.2 0 0 374.23 281.40
  Q 375.07 281.93 374.86 283.50
  A 1.04 1.02 -65.5 0 0 375.19 284.40
  Q 376.09 285.19 375.82 287.25
  A 1.18 1.13 34.0 0 0 375.97 287.95
  L 376.42 288.75
  A 0.67 0.60 -68.4 0 1 376.52 289.02
  L 377.87 297.72
  Q 377.87 297.74 377.87 297.76
  L 377.87 380.41
  A 0.47 0.46 90.0 0 1 377.41 380.88
  Z"
/>
<path d="
  M 607.87 328.32
  L 607.87 332.64
  A 4.67 4.41 37.9 0 0 608.08 334.00
  Q 609.02 336.98 608.87 339.47
  A 1.16 1.16 0.0 0 0 609.22 340.37
  Q 610.03 341.18 609.86 342.53
  A 0.89 0.89 0.0 0 0 610.24 343.38
  Q 610.72 343.70 610.83 344.39
  Q 610.91 344.96 611.21 345.52
  Q 614.37 351.58 619.92 355.57
  Q 621.84 356.94 623.23 357.31
  A 1.64 0.51 55.5 0 1 624.03 357.94
  Q 624.19 358.12 625.21 358.17
  Q 625.98 358.20 626.29 358.54
  C 627.05 359.37 628.74 359.07 629.93 359.41
  Q 634.32 360.67 639.40 359.89
  Q 642.95 359.34 643.03 359.34
  Q 645.03 359.39 648.67 358.08
  Q 655.71 355.56 658.93 348.84
  Q 659.17 348.34 659.19 347.90
  Q 659.21 347.36 659.63 347.26
  A 0.63 0.63 0.0 0 0 660.11 346.53
  Q 659.90 345.34 660.75 344.92
  A 0.74 0.72 -17.7 0 0 661.15 344.17
  Q 661.05 343.47 661.25 343.02
  Q 661.39 342.73 662.23 342.84
  Q 668.95 343.70 672.77 344.87
  C 673.86 345.21 675.71 344.98 676.61 345.84
  A 1.16 1.14 62.8 0 0 677.55 346.15
  Q 679.57 345.89 680.55 346.85
  A 1.03 1.01 62.8 0 0 681.43 347.14
  Q 682.98 346.91 684.18 347.83
  A 1.48 1.46 63.4 0 0 685.08 348.14
  L 685.98 348.14
  A 1.40 1.39 65.1 0 1 686.88 348.47
  Q 687.78 349.26 688.91 349.14
  A 1.15 1.14 8.2 0 1 690.09 350.71
  Q 687.62 356.71 683.15 362.64
  Q 671.54 378.05 653.31 382.48
  Q 646.92 384.03 640.53 383.92
  Q 637.16 383.86 627.57 383.81
  A 6.44 6.10 51.8 0 1 625.93 383.57
  Q 624.39 383.12 624.35 383.10
  C 622.75 382.43 621.26 383.35 619.71 382.12
  A 1.31 1.30 -29.6 0 0 618.71 381.85
  Q 617.05 382.10 616.18 381.18
  A 1.08 1.07 -26.3 0 0 615.23 380.86
  C 613.66 381.12 613.42 379.79 612.15 379.85
  Q 611.35 379.89 611.07 379.29
  A 0.76 0.76 0.0 0 0 610.26 378.86
  Q 609.33 379.00 609.01 378.24
  A 0.59 0.59 0.0 0 0 608.44 377.88
  Q 607.88 377.92 607.23 377.51
  Q 593.30 368.83 585.34 354.32
  Q 585.10 353.88 585.06 353.33
  Q 585.03 352.88 584.61 352.76
  A 0.71 0.69 13.0 0 1 584.12 351.99
  Q 584.24 351.15 583.73 350.79
  Q 582.90 350.21 583.10 349.60
  Q 583.35 348.80 582.56 348.47
  Q 582.00 348.24 582.14 347.36
  Q 582.29 346.41 581.66 345.95
  A 1.43 1.42 19.9 0 1 581.10 344.76
  Q 581.11 344.64 581.11 344.48
  A 1.65 1.65 0.0 0 0 580.65 343.29
  Q 580.00 342.60 580.12 341.43
  A 1.66 1.62 33.9 0 0 579.91 340.43
  Q 579.00 338.90 579.13 337.13
  A 1.72 1.69 34.0 0 0 578.94 336.20
  Q 577.96 334.33 578.12 331.76
  A 4.64 4.43 41.2 0 0 577.99 330.33
  C 576.74 325.45 577.07 320.27 577.16 314.28
  C 577.20 311.63 578.26 308.81 578.16 306.31
  Q 578.10 304.92 578.70 303.80
  C 579.53 302.23 578.68 301.06 579.85 299.34
  Q 580.31 298.68 580.11 297.27
  A 0.84 0.83 -17.3 0 1 580.57 296.41
  Q 581.38 296.02 581.08 294.64
  Q 580.93 293.90 581.62 293.43
  Q 582.23 293.01 582.15 292.26
  Q 582.05 291.20 582.62 290.94
  Q 583.09 290.72 583.09 290.13
  Q 583.09 289.59 583.29 289.18
  Q 588.70 278.39 595.24 271.74
  Q 609.69 257.06 630.24 255.14
  Q 631.73 255.00 642.72 255.22
  C 644.43 255.25 646.43 256.47 647.86 256.13
  A 0.74 0.69 -41.7 0 1 648.25 256.14
  L 655.54 258.40
  A 0.41 0.39 89.6 0 1 655.81 258.68
  Q 655.95 259.20 656.58 259.12
  Q 657.04 259.07 657.38 259.22
  Q 668.70 264.24 676.25 273.03
  Q 679.51 276.83 683.60 283.54
  Q 683.83 283.92 683.94 284.63
  Q 684.00 285.00 684.51 285.21
  Q 684.91 285.36 684.85 285.92
  Q 684.76 286.92 685.29 287.11
  Q 685.94 287.34 685.86 288.07
  Q 685.75 289.06 686.49 289.28
  A 0.54 0.54 0.0 0 1 686.86 289.79
  L 686.86 290.79
  A 0.77 0.77 0.0 0 0 687.19 291.42
  Q 688.11 292.02 687.85 293.46
  A 0.78 0.78 0.0 0 0 688.19 294.25
  Q 689.16 294.90 688.85 296.49
  A 0.82 0.81 20.4 0 0 689.25 297.35
  Q 690.00 297.78 689.88 299.37
  A 2.53 2.49 -53.9 0 0 690.04 300.45
  Q 691.99 305.28 692.02 310.50
  Q 692.08 320.97 691.96 327.40
  A 0.48 0.48 0.0 0 1 691.48 327.87
  L 608.32 327.87
  A 0.45 0.45 0.0 0 0 607.87 328.32
  Z
  M 661.14 306.59
  Q 661.24 302.55 660.43 299.45
  Q 660.10 298.22 659.83 296.81
  Q 659.67 295.98 659.02 294.44
  Q 654.67 284.11 642.79 279.91
  A 0.60 0.43 -27.9 0 0 642.64 279.89
  C 640.30 279.96 638.25 278.98 636.09 279.06
  Q 630.73 279.25 627.05 280.32
  Q 617.24 283.15 612.47 292.77
  Q 610.73 296.27 610.68 297.33
  A 1.45 1.42 65.0 0 1 610.40 298.12
  L 610.01 298.66
  A 0.98 0.97 -33.8 0 0 609.85 299.45
  Q 610.11 300.54 609.29 302.48
  Q 608.57 304.17 608.93 306.55
  A 0.69 0.68 85.5 0 0 609.60 307.13
  L 660.59 307.13
  A 0.55 0.55 0.0 0 0 661.14 306.59
  Z"
/>
<path d="
  M 133.45 340.11
  A 0.34 0.34 0.0 0 1 133.69 340.68
  Q 132.69 341.68 132.86 342.73
  Q 133.02 343.72 132.38 344.16
  Q 131.69 344.64 131.90 345.65
  Q 132.07 346.47 131.38 347.23
  Q 130.83 347.83 130.83 348.87
  Q 130.83 349.67 130.32 349.92
  Q 129.93 350.11 129.91 350.62
  Q 129.88 351.10 129.73 351.44
  Q 127.12 357.15 123.79 362.01
  Q 117.53 371.15 107.81 376.87
  Q 105.89 378.00 105.47 377.93
  A 0.44 0.43 -74.2 0 0 104.98 378.21
  Q 104.65 379.14 103.61 378.86
  A 0.58 0.58 0.0 0 0 102.92 379.24
  Q 102.64 380.08 101.48 379.86
  A 0.77 0.77 0.0 0 0 100.65 380.25
  Q 100.20 381.05 98.78 380.86
  A 1.14 1.13 20.5 0 0 97.69 381.35
  Q 97.64 381.43 97.62 381.45
  A 1.28 1.26 -64.9 0 1 96.44 381.89
  Q 95.04 381.67 94.40 382.41
  A 0.48 0.47 14.6 0 1 94.12 382.57
  L 87.68 383.81
  A 3.89 3.47 37.0 0 1 87.07 383.86
  Q 74.21 383.90 70.76 383.83
  C 69.51 383.80 68.03 382.83 66.44 382.87
  Q 65.08 382.90 64.38 382.34
  C 63.18 381.39 61.79 382.40 60.70 381.20
  A 1.01 0.99 68.5 0 0 59.96 380.87
  L 58.77 380.87
  A 0.88 0.87 -19.7 0 1 58.10 380.56
  Q 57.60 379.95 57.07 379.92
  Q 56.59 379.90 56.13 379.70
  Q 44.26 374.60 35.50 364.74
  Q 30.91 359.57 27.37 353.33
  Q 27.11 352.87 27.12 352.58
  Q 27.15 352.12 26.67 351.95
  A 0.82 0.81 11.9 0 1 26.13 351.13
  Q 26.14 350.93 26.15 350.92
  A 1.09 1.07 -76.7 0 0 25.55 349.93
  Q 24.83 349.56 25.12 348.62
  A 0.57 0.56 -70.7 0 0 24.79 347.92
  Q 23.85 347.55 24.13 346.43
  A 0.69 0.68 19.6 0 0 23.75 345.64
  Q 22.90 345.26 23.14 343.99
  A 0.95 0.94 -66.8 0 0 22.77 343.05
  Q 22.03 342.50 22.14 341.42
  C 22.27 340.00 21.01 339.39 21.12 337.41
  A 2.02 1.97 -58.8 0 0 20.87 336.33
  Q 19.96 334.70 20.14 332.34
  A 2.34 2.34 0.0 0 0 19.97 331.28
  Q 19.29 329.59 19.23 328.23
  Q 19.08 325.00 19.13 312.34
  Q 19.15 309.08 19.95 307.09
  A 2.42 2.41 -36.5 0 0 20.12 305.97
  Q 19.94 303.58 20.91 302.27
  A 1.24 1.24 0.0 0 0 21.15 301.33
  Q 20.87 299.54 21.84 298.62
  A 1.00 1.00 0.0 0 0 22.13 297.75
  Q 21.92 296.38 22.74 295.66
  A 1.21 1.19 68.1 0 0 23.14 294.70
  L 23.09 293.90
  A 0.70 0.69 -10.9 0 1 23.57 293.20
  Q 24.20 292.99 24.13 292.37
  Q 24.07 291.84 24.30 291.30
  Q 27.36 284.31 31.36 278.89
  Q 40.81 266.05 55.27 259.36
  Q 55.81 259.12 56.60 259.07
  Q 57.11 259.05 57.38 258.52
  Q 57.61 258.06 58.23 258.15
  Q 59.35 258.32 60.10 257.70
  Q 60.88 257.06 61.47 257.10
  C 63.10 257.24 64.09 256.12 65.63 256.13
  C 67.90 256.15 69.21 255.17 71.50 255.14
  Q 74.38 255.10 86.33 255.13
  Q 87.63 255.13 90.09 255.74
  Q 93.10 256.49 93.84 256.58
  Q 95.87 256.83 96.95 257.32
  Q 97.79 257.70 97.89 257.84
  A 0.78 0.77 67.0 0 0 98.68 258.16
  Q 100.02 257.88 100.70 258.79
  A 0.90 0.88 -22.7 0 0 101.56 259.13
  Q 102.38 258.98 102.70 259.55
  A 1.31 1.30 73.5 0 0 103.82 260.16
  L 104.16 260.15
  A 0.72 0.72 0.0 0 1 104.83 260.61
  Q 105.04 261.16 105.58 261.12
  Q 105.87 261.10 106.35 261.37
  Q 121.45 269.98 128.99 286.78
  Q 130.14 289.35 129.96 289.75
  A 0.53 0.52 -65.2 0 0 130.21 290.44
  Q 130.97 290.80 130.87 291.99
  Q 130.79 292.84 131.24 293.44
  Q 131.99 294.45 131.85 296.46
  A 0.79 0.79 0.0 0 0 132.15 297.14
  Q 132.30 297.26 132.33 297.29
  A 0.51 0.50 -24.2 0 1 132.00 298.15
  L 103.58 299.76
  A 0.78 0.78 0.0 0 1 102.80 299.23
  Q 102.18 297.40 102.19 297.30
  Q 102.36 295.79 101.03 292.49
  Q 98.17 285.38 90.99 282.08
  C 90.29 281.76 89.48 281.91 88.90 281.23
  A 1.10 1.08 -23.2 0 0 87.96 280.86
  Q 86.62 281.00 84.56 280.04
  A 1.88 1.80 56.2 0 0 83.79 279.87
  L 76.55 279.87
  A 3.48 3.44 -54.3 0 0 75.42 280.06
  Q 72.92 280.91 71.44 280.89
  A 1.22 1.19 -65.1 0 0 70.60 281.21
  C 69.47 282.24 68.93 281.56 67.53 282.32
  Q 57.61 287.68 54.66 295.51
  Q 54.60 295.68 54.09 296.18
  Q 53.83 296.45 53.90 296.89
  Q 53.97 297.34 53.77 297.63
  Q 53.75 297.66 53.22 298.31
  A 1.65 1.62 -26.1 0 0 52.86 299.33
  Q 52.87 300.50 52.14 301.34
  A 1.21 1.20 -28.2 0 0 51.86 302.26
  Q 52.07 304.13 51.15 305.54
  A 1.84 1.83 61.8 0 0 50.87 306.48
  C 50.87 307.91 50.98 308.98 50.78 310.01
  Q 48.95 319.76 50.62 329.06
  Q 50.91 330.68 50.89 332.52
  C 50.87 334.42 51.91 335.67 51.84 337.80
  A 1.47 1.44 26.0 0 0 52.18 338.76
  Q 53.01 339.73 52.87 340.87
  A 0.91 0.90 21.0 0 0 53.25 341.71
  Q 53.89 342.17 53.83 343.04
  A 1.29 1.29 0.0 0 0 54.42 344.21
  Q 54.96 344.56 54.87 344.67
  Q 54.56 345.02 55.49 346.43
  Q 65.37 361.42 82.71 358.74
  Q 88.07 357.91 92.03 356.11
  Q 94.14 355.14 96.64 353.06
  Q 98.64 351.40 100.06 348.76
  Q 102.77 343.73 103.05 341.73
  Q 103.54 338.12 104.27 337.29
  A 0.97 0.95 -64.3 0 1 105.13 336.98
  L 112.90 338.14
  A 1.91 0.74 22.5 0 0 113.11 338.15
  Q 117.21 337.92 121.45 338.99
  A 5.01 4.95 50.3 0 0 122.95 339.14
  Q 127.18 338.92 130.85 340.01
  A 2.54 2.41 -35.3 0 0 131.55 340.11
  L 133.45 340.11
  Z"
/>
</svg>
